<svg width="30" height="30" viewBox="0 0 30 30" fill="none" xmlns="http://www.w3.org/2000/svg">
<path d="M15.72 0.675614C18.2293 -0.308609 20.9029 -0.181024 23.1932 0.821425C25.4835 1.81476 27.3996 3.69208 28.3851 6.1982C29.3706 8.69521 29.2428 11.3654 28.2482 13.6528C27.2445 15.9493 25.3648 17.854 22.8647 18.8382C20.3554 19.8224 17.6818 19.6948 15.3915 18.7015C14.5977 18.3552 13.8586 17.9086 13.1742 17.3618L11.0664 19.6037L12.1249 20.597C12.4351 20.8886 12.4443 21.3807 12.1523 21.6906L4.55141 29.7558C4.25942 30.0656 3.77581 30.0838 3.46557 29.7922L0.244552 26.7666C-0.0656877 26.475 -0.083937 25.9829 0.208053 25.6731L7.80892 17.6079C8.10091 17.298 8.58452 17.2798 8.89476 17.5714L9.95323 18.5648L12.061 16.3229C11.2854 15.4663 10.6467 14.4639 10.1996 13.3247C9.21413 10.8186 9.34187 8.14842 10.3365 5.86101C11.3402 3.5736 13.2107 1.65984 15.72 0.675614ZM7.85455 24.0053L5.75587 22.0369L1.85962 26.1743L3.9583 28.1427L7.85455 24.0053ZM6.80521 20.916L8.90389 22.8844L10.5007 21.1894L8.40203 19.2209L6.80521 20.916ZM21.8062 6.66297C21.4777 6.38958 21.423 5.90658 21.6967 5.5785C21.9613 5.25043 22.4449 5.20486 22.7734 5.46914C23.9596 6.42603 24.644 7.77478 24.79 9.18732C24.936 10.5907 24.5436 12.0489 23.5855 13.2336C23.3209 13.5616 22.8373 13.6163 22.5088 13.3429C22.1803 13.0786 22.1256 12.5956 22.3902 12.2676C23.0837 11.4109 23.3665 10.3538 23.257 9.34225C23.1567 8.33068 22.6639 7.35557 21.8062 6.66297ZM22.5818 2.22485C20.6565 1.38644 18.4027 1.27708 16.2858 2.10638C14.1688 2.93568 12.5903 4.54871 11.7508 6.47159C10.9113 8.39447 10.8018 10.6454 11.6322 12.7597C12.4625 14.8739 14.0776 16.4505 16.0029 17.2889C17.9282 18.1273 20.182 18.2367 22.2989 17.4074C24.4159 16.5781 25.9944 14.9651 26.8339 13.0422C27.6734 11.1193 27.7829 8.86836 26.9525 6.7541C26.1222 4.63985 24.5071 3.06327 22.5818 2.22485Z" fill="#0F75BD"/>
</svg>
