<svg width="122" height="25" viewBox="0 0 122 25" fill="none" xmlns="http://www.w3.org/2000/svg">
<path fill-rule="evenodd" clip-rule="evenodd" d="M22.8604 11.8243L21.8468 6.75676L25.5631 5.74324L25.1126 4.39189L21.0586 1.91441L16.7793 4.27928L14.527 1.46396L14.4144 1.23874L0.788288 0L0.337838 0.900901L10.2477 10.9234L0 23.1982L0.337838 24.0991L7.31982 25L9.23423 18.5811L22.8604 11.8243ZM114.977 6.86937C113.288 6.86937 111.712 7.54504 110.473 8.67117C109.234 9.90991 108.671 11.4865 108.671 13.1757C108.671 14.8649 109.347 16.5541 110.586 17.6802C111.712 18.9189 113.288 19.5946 114.865 19.5946C114.865 19.5946 114.865 19.5946 114.977 19.5946H115.09C116.667 19.5946 118.243 18.9189 119.369 17.6802C120.608 16.4414 121.284 14.8649 121.284 13.1757C121.284 9.68468 118.468 6.86937 114.977 6.86937ZM119.82 13.1757C119.82 16.1036 117.68 18.2432 114.977 18.2432C112.275 18.2432 110.135 15.991 110.135 13.1757C110.135 10.3604 112.162 8.22072 114.977 8.22072C117.68 8.22072 119.82 10.3604 119.82 13.1757ZM99.8874 19.2568H101.239V8.33333H107.658V7.09459H99.8874V19.2568ZM90.8784 6.86937C88.964 6.86937 87.5 7.77027 86.2613 9.45946L87.1622 10.2477L87.2748 10.1351C88.2883 8.78378 89.4144 8.22072 90.8784 8.22072C92.9054 8.22072 94.1441 9.45946 94.1441 11.5991V12.9504H89.9775C87.3874 12.9504 85.6982 14.1892 85.6982 16.2162C85.6982 17.3423 86.1486 18.1306 86.9369 18.6937C87.7252 19.2568 88.7387 19.5946 89.8649 19.5946C91.7793 19.5946 93.2432 18.8063 94.1441 17.5676V19.2568H95.4955V11.7117C95.4955 8.67117 93.8063 6.86937 90.8784 6.86937ZM94.1441 14.0766V14.7522C94.1441 16.7793 92.3423 18.3559 90.0901 18.3559C88.6261 18.3559 87.1622 17.6802 87.1622 16.1036C87.1622 14.8649 88.1757 14.1892 90.0901 14.1892H94.1441V14.0766ZM74.5495 10.1351C74.3243 15.4279 73.8739 18.018 72.0721 18.1306C71.8468 18.1306 71.7342 18.1306 71.6216 18.1306H71.509V19.2568H71.6216C71.7342 19.3694 71.9595 19.3694 72.0721 19.3694C74.6622 19.2568 75.4504 17.2297 75.7883 10.1351L75.9009 8.33333H80.8558V19.2568H82.3198V7.09459H74.6622L74.5495 10.1351ZM64.9775 9.7973H60.8108V4.05405H68.9189V2.7027H59.4595V19.2568H64.9775C68.1306 19.2568 70.2703 17.3423 70.2703 14.527C70.2703 11.7117 68.1306 9.7973 64.9775 9.7973ZM60.8108 18.018V11.036H64.8649C67.3423 11.036 68.8063 12.3874 68.8063 14.527C68.8063 16.6667 67.3423 18.018 64.9775 18.018H60.8108ZM49.4369 6.86937C47.7477 6.86937 46.1712 7.54504 44.9324 8.67117C43.6937 9.90991 43.1306 11.4865 43.1306 13.1757C43.1306 14.8649 43.8063 16.5541 44.9324 17.6802C46.1712 18.9189 47.7477 19.5946 49.3243 19.5946C49.3243 19.5946 49.3243 19.5946 49.4369 19.5946C51.0135 19.5946 52.7027 18.9189 53.8288 17.6802C55.0676 16.4414 55.7432 14.8649 55.7432 13.1757C55.7432 9.68468 52.9279 6.86937 49.4369 6.86937ZM54.2793 13.1757C54.2793 16.1036 52.1396 18.2432 49.4369 18.2432C46.6216 18.2432 44.482 15.991 44.482 13.1757C44.482 10.3604 46.6216 8.22072 49.4369 8.22072C52.1396 8.22072 54.2793 10.3604 54.2793 13.1757ZM37.8378 12.8378C38.7387 12.2748 39.3018 11.2613 39.3018 10.2477C39.3018 8.33333 37.8378 7.09459 35.5856 7.09459H30.7432V19.2568H35.9234C38.5135 19.2568 40.2027 17.9054 40.2027 15.6532C40.2027 14.3018 39.3018 13.2883 37.8378 12.8378ZM35.5856 12.2748H32.0946V8.33333H35.5856C37.0495 8.33333 37.9504 9.00901 37.9504 10.2477C37.9504 11.5991 37.0495 12.2748 35.5856 12.2748ZM32.0946 13.5135H35.9234C37.7252 13.5135 38.7387 14.4144 38.7387 15.7658C38.7387 17.1171 37.6126 18.018 35.8108 18.018H32.0946V13.5135ZM24.2117 5.06757L21.7342 5.63063L21.2838 3.26577L24.2117 5.06757ZM20.1577 3.49099L21.509 10.0225L17.455 5.06757L20.1577 3.49099ZM13.1757 2.25225L10.8108 10.0225L2.13964 1.23874L13.1757 2.25225ZM6.53153 23.8739L1.46396 23.0856L9.7973 13.1757L6.53153 23.8739ZM14.1892 2.7027L21.1712 11.4865L9.68468 17.2297L14.1892 2.7027Z" fill="#0F75BD"/>
</svg>
