<svg width="55" height="55" viewBox="0 0 55 55" fill="none" xmlns="http://www.w3.org/2000/svg">
<path fill-rule="evenodd" clip-rule="evenodd" d="M27.5 0C42.5595 0 55 12.2222 55 27.5C55 42.5595 42.5595 55 27.5 55C12.2222 55 0 42.5595 0 27.5C0 12.2222 12.2222 0 27.5 0Z" fill="#DFEBF7"/>
<path fill-rule="evenodd" clip-rule="evenodd" d="M20.5649 17.9768C20.6776 14.545 21.3839 10.461 24.2691 8.33367C27.6728 5.82584 32.1059 7.07587 35.75 8.20944L34.6755 14.7779L33.9242 14.5683C29.3108 13.2794 28.4467 14.2189 28.4918 19.4675L28.4993 20.7253H34.946L34.4576 27.1695H28.4918V48.125H20.5348V27.1695H16.5V20.7253H20.5348L20.5649 17.9768Z" fill="#0F75BD"/>
</svg>
