<svg width="56" height="55" viewBox="0 0 56 55" fill="none" xmlns="http://www.w3.org/2000/svg">
<path fill-rule="evenodd" clip-rule="evenodd" d="M27.875 0C42.9345 0 55.375 12.2222 55.375 27.5C55.375 42.5595 42.9345 55 27.875 55C12.5972 55 0.375 42.5595 0.375 27.5C0.375 12.2222 12.5972 0 27.875 0Z" fill="#DFEBF7"/>
<path fill-rule="evenodd" clip-rule="evenodd" d="M27.4605 9C32.6472 9 36.8909 12.961 36.8909 17.8022C36.8909 22.6434 32.6472 26.4944 27.4605 26.4944C22.2738 26.4944 18.148 22.6434 18.148 17.8022C18.148 12.961 22.2738 9 27.4605 9ZM31.3505 33.6462C32.6472 33.4261 35.7121 32.3258 36.8909 31.4456C37.9518 30.6754 38.3055 29.3551 37.7161 28.2548C37.1267 26.9345 35.3585 26.4944 34.0618 27.0445C31.8221 28.1448 30.5254 28.8049 27.8141 28.915C25.3386 29.025 23.3347 28.3648 21.2128 27.2646C19.6804 26.3843 17.7943 26.8244 17.2049 28.3648C16.7334 29.4651 17.087 30.8955 18.148 31.5556C20.034 32.6559 21.5665 33.096 23.6883 33.6462L18.6195 38.3773C17.3228 39.5876 17.3228 41.3481 18.7374 42.4483C19.7983 43.2185 21.4486 43.1085 22.3916 42.1183L27.4605 37.3871L32.4115 41.8982C33.4724 42.9985 34.7691 43.4386 36.1836 42.4483C37.4803 41.6782 37.7161 39.6977 36.6551 38.5974L31.3505 33.6462ZM27.4605 14.0613C29.7002 14.0613 31.4684 15.7117 31.4684 17.8022C31.4684 19.7827 29.7002 21.4331 27.4605 21.4331C25.3386 21.4331 23.5704 19.7827 23.5704 17.8022C23.5704 15.7117 25.3386 14.0613 27.4605 14.0613Z" fill="#0F75BD"/>
</svg>
