<svg width="56" height="55" viewBox="0 0 56 55" fill="none" xmlns="http://www.w3.org/2000/svg">
<path fill-rule="evenodd" clip-rule="evenodd" d="M27.75 0C42.8095 0 55.25 12.2222 55.25 27.5C55.25 42.5595 42.8095 55 27.75 55C12.4722 55 0.25 42.5595 0.25 27.5C0.25 12.2222 12.4722 0 27.75 0Z" fill="#DFEBF7"/>
<path fill-rule="evenodd" clip-rule="evenodd" d="M28.2671 39.784C29.1316 39.7723 29.6457 39.2111 29.634 38.3109C29.634 38.3109 29.5873 35.2244 31.0243 34.7684C32.438 34.3241 34.249 37.7614 36.165 39.0708C37.6254 40.0763 38.7237 39.8541 38.7237 39.8541L43.8644 39.784C43.8644 39.784 46.5632 39.6203 45.278 37.5042C45.1846 37.3288 44.542 35.9375 41.4576 33.0732C38.233 30.0802 38.6653 30.5712 42.5558 25.3919C44.0162 23.4395 44.9275 21.9547 45.3481 20.9141C46.0141 19.2657 45.3365 18.8915 43.5489 18.9032L37.754 18.9383C37.1581 18.9383 36.7375 19.1604 36.5038 19.6982C36.5038 19.6982 35.5809 22.1417 34.3541 24.2111C31.7838 28.5954 30.7556 28.8175 30.3233 28.5486C29.3536 27.9173 29.599 25.9999 29.599 24.6437C29.599 20.3997 30.2416 18.6343 28.3372 18.1784C26.7015 17.7692 22.2385 17.7107 20.8365 18.4005C20.1822 18.7162 19.6681 19.441 19.9836 19.4761C20.3574 19.5346 21.222 19.7099 21.6893 20.3413C22.2852 21.148 22.2618 22.9601 22.2618 22.9601C22.2618 22.9601 22.6006 27.9523 21.4674 28.572C20.6846 29.0046 19.6097 28.1277 17.3198 24.1643C16.1398 22.1183 15.2518 19.8736 15.2518 19.8736C15.0065 19.2773 14.5041 18.8681 13.8849 18.8681L8.382 18.9032C7.4707 18.9149 6.86317 19.2773 7.23704 20.2711C7.23704 20.2711 11.5365 30.3491 16.4085 35.4348C20.2873 39.48 23.5003 39.8658 28.2671 39.784Z" fill="#0F75BD"/>
</svg>
