<svg width="122" height="120" viewBox="0 0 122 120" fill="none" xmlns="http://www.w3.org/2000/svg">
<path d="M66.8315 60.9227C67.1708 61.165 67.2192 61.6497 66.9769 61.9404C66.7346 62.2797 66.2984 62.3281 66.0076 62.0858C62.7606 59.7111 59.9981 56.7063 57.9142 53.1685C55.9272 49.8245 54.5217 45.9959 53.9402 41.8764C52.7286 33.4922 55.0063 25.4472 59.7073 19.1954C64.4083 12.9436 71.484 8.43646 79.8198 7.27333C88.204 6.06174 96.249 8.33953 102.501 13.0405C108.753 17.7415 113.26 24.8172 114.471 33.153C115.489 40.4225 113.89 47.4982 110.352 53.3139C106.766 59.2749 101.192 63.9759 94.4074 66.3506C94.0197 66.496 93.5835 66.3022 93.4866 65.9145C93.3412 65.5268 93.535 65.139 93.9227 64.9937C100.368 62.7159 105.699 58.2572 109.14 52.5869C112.484 47.0136 114.035 40.3256 113.017 33.3953C111.903 25.3988 107.638 18.6623 101.677 14.2036C95.6674 9.69652 88.0102 7.51565 80.0621 8.67878C72.0656 9.79344 65.3291 14.0583 60.8705 20.0678C56.3633 26.0288 54.1825 33.6861 55.3456 41.6826C55.9272 45.6082 57.2357 49.2429 59.1258 52.4415C61.1613 55.7855 63.7783 58.6449 66.8315 60.9227ZM76.8635 70.4701C76.7181 70.1308 76.912 69.6946 77.2512 69.5492C77.6389 69.4039 78.0266 69.5977 78.172 69.937C78.4143 70.5185 78.6567 71.0032 78.9959 71.4878C79.3351 72.0209 79.7713 72.4571 80.3044 72.9417C80.5952 73.2325 80.5952 73.6687 80.3529 73.9594C80.1106 74.2502 79.6259 74.2987 79.3352 74.0079C78.7051 73.4748 78.2205 72.8932 77.8328 72.3117C77.4451 71.7301 77.1058 71.1486 76.8635 70.4701ZM6.1549 118.013V83.4099H7.60881V118.013H6.1549ZM61.5005 68.5315C61.8882 68.58 62.179 68.9192 62.1305 69.3069C62.0821 69.6946 61.7428 69.9854 61.3551 69.937C59.0773 69.7431 56.751 69.3069 54.4732 68.5315C52.3893 67.853 50.3538 66.9322 48.4153 65.7206C48.076 65.4783 47.9306 65.0421 48.173 64.7029C48.3668 64.3636 48.803 64.2667 49.1422 64.509C51.0323 65.6721 52.9709 66.5445 54.9579 67.1745C57.0903 67.9015 59.3196 68.3377 61.5005 68.5315Z" fill="#0F75BD"/>
<path d="M89.7549 43.1365C90.9665 43.1365 91.9357 44.1058 91.9357 45.3174C91.9357 46.4805 90.9665 47.4498 89.7549 47.4498H82.0007V52.7808C82.0007 54.1378 81.0314 55.204 79.8682 55.204C78.7051 55.204 77.7359 54.1378 77.7359 52.7808V47.4498H74.4403C73.2772 47.4498 72.3079 46.4805 72.3079 45.3174C72.3079 44.1058 73.2772 43.1365 74.4403 43.1365H77.7359V40.2287H74.6342C73.471 40.2287 72.5018 39.114 72.5018 37.8055C72.5018 36.4485 73.471 35.3823 74.6342 35.3823H77.7359V18.7108C77.7359 17.4023 78.7051 16.2876 79.8682 16.2876H82.8245C88.1556 16.2876 91.3542 18.0807 93.2442 20.4555C95.2313 22.9756 95.6674 25.9803 95.6674 28.452C95.6674 31.3598 94.6012 34.8007 91.7903 37.2239C89.8033 39.0171 86.847 40.2287 82.8245 40.2287H82.0007V43.1365H89.7549ZM52.147 79.1935C51.0808 79.6782 49.8207 79.1935 49.3361 78.1273C48.8515 77.0127 49.3361 75.7526 50.4023 75.268C54.861 73.3294 58.6411 70.567 62.179 67.9015C57.6719 64.6544 53.9401 60.3896 51.2746 55.4948C49.2392 51.763 47.7853 47.6436 47.1068 43.2819C45.459 44.0573 43.9082 44.9781 42.5027 45.9959C40.6126 47.4013 38.9164 49.0975 37.4625 51.0846L17.2046 78.9512C15.6538 81.0836 13.4245 82.6345 10.9043 83.6522C8.8204 84.5245 6.49414 85.0092 4.31327 85.203V115.735H36.8324C41.485 115.735 45.459 111.325 49.1422 107.157C50.2084 105.994 51.2262 104.831 52.1955 103.813L55.3941 100.615C55.5395 100.372 55.7333 100.13 56.0241 99.9845V99.936L83.8907 71.7301C85.9262 69.6462 86.847 67.853 86.9924 66.4476C87.0409 65.7206 86.8955 65.139 86.5563 64.6544C86.1685 64.1213 85.5385 63.6851 84.7146 63.3943C82.7761 62.7158 79.9167 62.7643 76.6212 63.9274C72.7441 65.2844 69.1578 67.9984 65.3291 70.8578C61.452 73.814 57.2841 76.9157 52.147 79.1935ZM83.3576 78.3212V78.4181L80.886 97.9975C80.5467 100.76 78.8505 102.747 76.7181 103.765C75.7004 104.249 74.4888 104.54 73.3256 104.54C72.1625 104.589 70.9509 104.346 69.9332 103.862C69.2062 103.522 68.5277 103.038 67.9462 102.408L65.523 104.249L65.0868 104.589C63.439 105.655 61.6459 105.994 59.9496 105.752C59.0288 105.606 58.108 105.267 57.3326 104.782L55.2971 106.818C54.2794 107.836 53.3101 108.95 52.3408 110.016C48.0276 114.863 43.375 120 36.8324 120H2.1324C0.969275 120 0 119.079 0 117.868V83.1676C0 82.0044 0.969275 81.0351 2.1324 81.0351C4.45866 81.0351 7.02724 80.599 9.30504 79.6782C11.0982 78.9512 12.6975 77.885 13.7152 76.4311L33.9731 48.5644C35.7178 46.1897 37.7048 44.2027 39.9826 42.5549C42.0181 41.0526 44.2474 39.7925 46.7191 38.7748C46.6706 38.5324 46.6706 38.2901 46.6706 38.0478C46.5252 27.6766 50.5961 18.2261 57.2841 11.3443C63.9721 4.46243 73.3256 0.14916 83.6484 0.00376836C94.0197 -0.141623 103.47 3.92933 110.352 10.6173C117.234 17.3053 121.547 26.6104 121.692 36.9816C121.838 47.0621 118.009 56.2702 111.612 63.1036C105.312 69.84 96.5398 74.2987 86.7501 74.9287L83.3576 78.3212ZM60.5312 101.487H60.5797C61.2582 101.584 62.0336 101.438 62.7121 101.002L62.9059 100.857L66.2015 98.3367L65.9107 96.0589L60.5312 101.487ZM69.7393 92.1818L70.4663 98.0944C70.6601 98.3852 70.7571 98.7244 70.8055 99.0637C70.9994 99.4998 71.3871 99.7906 71.7748 99.9845C72.211 100.178 72.7441 100.275 73.2772 100.275C73.8103 100.275 74.3918 100.13 74.8765 99.8876C75.7973 99.4514 76.4758 98.6275 76.6212 97.4644L78.4143 83.3614L69.7393 92.1818ZM82.0007 21.134V35.3823H82.8245C85.8293 35.3823 87.8648 34.5584 89.2217 33.3953C90.8211 32.0383 91.4026 30.0513 91.4026 28.452C91.4026 26.9011 91.1603 25.0595 90.0941 23.7025C88.931 22.2002 86.7501 21.134 82.8245 21.134H82.0007ZM65.8138 65.1875C68.8185 63.0066 71.8233 61.0681 75.2157 59.905C79.4805 58.4026 83.3576 58.3541 86.1685 59.3719C87.8163 59.9534 89.1248 60.9227 90.0456 62.1828C90.9664 63.4428 91.4026 65.0421 91.2572 66.7868C91.1603 67.853 90.8695 68.9677 90.2879 70.1793C97.4121 68.8707 103.761 65.236 108.462 60.1473C114.132 54.1378 117.525 45.9474 117.428 37.0301C117.282 27.8704 113.454 19.6316 107.347 13.6705C101.241 7.75797 92.905 4.17165 83.6969 4.26858C74.5372 4.41397 66.2984 8.2426 60.3858 14.349C54.4248 20.4555 50.8385 28.7912 50.9839 37.9993C51.0323 43.5727 52.4862 48.8552 55.0064 53.4593C57.6234 58.1603 61.3066 62.2312 65.8138 65.1875Z" fill="#0F75BD"/>
</svg>
