<svg width="40" height="40" viewBox="0 0 40 40" fill="none" xmlns="http://www.w3.org/2000/svg">
    <path d="M0.884325 5.14722C-0.294775 3.96812 -0.294775 2.06342 0.884325 0.884325C2.06342 -0.294775 3.96812 -0.294775 5.14722 0.884325L20.022 15.6684L34.8061 0.884325C35.9852 -0.294775 37.8899 -0.294775 39.069 0.884325C40.2481 2.06342 40.3388 3.96812 39.1597 5.14722L24.2849 20.022L39.1597 34.8061C40.3388 35.9852 40.2481 37.8899 39.069 39.069C37.8899 40.2481 35.9852 40.3388 34.8061 39.1597L20.022 24.2849L5.14722 39.1597C3.96812 40.3388 2.06342 40.2481 0.884325 39.069C-0.294775 37.8899 -0.294775 35.9852 0.884325 34.8061L15.6684 20.022L0.884325 5.14722Z"
          fill="#0F75BD"/>
</svg>
