<svg width="34" height="22" viewBox="0 0 34 22" fill="none" xmlns="http://www.w3.org/2000/svg">
<path d="M17 21.5879C5.86254 21.5879 0.843799 11.7566 0.637549 11.3441C0.500049 11.0691 0.500049 10.7941 0.637549 10.5191C0.843799 10.1066 5.86254 0.275391 17 0.275391C28.1375 0.275391 33.1563 10.1066 33.3625 10.5191C33.5 10.7941 33.5 11.0691 33.3625 11.3441C33.1563 11.8254 28.1375 21.5879 17 21.5879ZM2.49379 11.0004C3.52504 12.7879 8.26879 19.8004 17 19.8004C25.7313 19.8004 30.475 12.7879 31.5063 11.0004C30.475 9.2129 25.7313 2.2004 17 2.2004C8.26879 2.2004 3.52504 9.2129 2.49379 11.0004Z" fill="#134563"/>
<path d="M17.0001 19.6629C12.1877 19.6629 8.33765 15.7441 8.33765 11.0004C8.33765 6.25664 12.2564 2.33789 17.0001 2.33789C21.7439 2.33789 25.6627 6.25664 25.6627 11.0004C25.6627 15.7441 21.8126 19.6629 17.0001 19.6629ZM17.0001 4.12539C13.2189 4.12539 10.1252 7.21914 10.1252 11.0004C10.1252 14.7816 13.2189 17.8754 17.0001 17.8754C20.7814 17.8754 23.8751 14.7816 23.8751 11.0004C23.8751 7.21914 20.7814 4.12539 17.0001 4.12539Z" fill="#134563"/>
<path d="M17 15.8131C14.3875 15.8131 12.1875 13.6818 12.1875 11.0006C12.1875 10.5193 12.6 10.1068 13.0813 10.1068C13.5625 10.1068 13.975 10.5193 13.975 11.0006C13.975 12.6506 15.2812 13.9568 16.9312 13.9568C18.5812 13.9568 19.8875 12.6506 19.8875 11.0006C19.8875 9.35058 18.5812 8.04434 16.9312 8.04434C16.45 8.04434 16.0375 7.63183 16.0375 7.15058C16.0375 6.66933 16.45 6.25684 16.9312 6.25684C19.5437 6.25684 21.7437 8.38809 21.7437 11.0693C21.7437 13.7506 19.6125 15.8131 17 15.8131Z" fill="#134563"/>
</svg>
