<svg width="37" height="26" viewBox="0 0 37 26" fill="none" xmlns="http://www.w3.org/2000/svg">
<path d="M6.80739 25.9417V24.1765C6.80739 23.5013 6.36802 23.0591 5.61378 23.0591C5.23666 23.0591 4.82658 23.1757 4.54466 23.5596C4.32498 23.2374 4.0101 23.0591 3.53778 23.0591C3.2229 23.0591 2.90802 23.1482 2.65905 23.4704V23.1174H2V25.9417H2.65905V24.3822C2.65905 23.8817 2.94097 23.6452 3.38034 23.6452C3.8197 23.6452 4.03939 23.9092 4.03939 24.3822V25.9417H4.69844V24.3822C4.69844 23.8817 5.01331 23.6452 5.41973 23.6452C5.85909 23.6452 6.07877 23.9092 6.07877 24.3822V25.9417H6.80739ZM16.5833 23.1174H15.5141V22.2639H14.8551V23.1174H14.2583V23.6761H14.8551V24.9717C14.8551 25.6195 15.137 26 15.8913 26C16.1732 26 16.4881 25.9109 16.7078 25.7943L16.5174 25.2631C16.327 25.3796 16.1073 25.4105 15.9499 25.4105C15.635 25.4105 15.5105 25.2322 15.5105 24.9409V23.6761H16.5796V23.1174H16.5833ZM22.1779 23.0557C21.8007 23.0557 21.5481 23.2339 21.3907 23.467V23.114H20.7316V25.9383H21.3907V24.3479C21.3907 23.8783 21.6103 23.611 22.0204 23.611C22.1449 23.611 22.3023 23.6418 22.4305 23.6692L22.6209 23.0797C22.4891 23.0557 22.3023 23.0557 22.1779 23.0557ZM13.7237 23.3505C13.4089 23.1448 12.9695 23.0557 12.4972 23.0557C11.7429 23.0557 11.2413 23.4087 11.2413 23.9674C11.2413 24.437 11.6184 24.7044 12.2775 24.7901L12.5924 24.8209C12.9365 24.8792 13.1269 24.9683 13.1269 25.1157C13.1269 25.3213 12.8743 25.4687 12.4349 25.4687C11.9956 25.4687 11.6477 25.3213 11.428 25.174L11.1132 25.6435C11.4573 25.88 11.9297 25.9966 12.402 25.9966C13.2807 25.9966 13.786 25.6127 13.786 25.0848C13.786 24.5844 13.3759 24.3205 12.7498 24.2314L12.4349 24.2005C12.153 24.1697 11.9333 24.1114 11.9333 23.9366C11.9333 23.7309 12.153 23.6144 12.5008 23.6144C12.878 23.6144 13.2551 23.7618 13.4455 23.8509L13.7237 23.3505ZM31.2581 23.0557C30.881 23.0557 30.6283 23.2339 30.4709 23.467V23.114H29.8118V25.9383H30.4709V24.3479C30.4709 23.8783 30.6906 23.611 31.1006 23.611C31.2251 23.611 31.3826 23.6418 31.5107 23.6692L31.7011 23.0865C31.573 23.0557 31.3862 23.0557 31.2581 23.0557ZM22.8369 24.5296C22.8369 25.383 23.4667 26 24.4406 26C24.88 26 25.1948 25.9109 25.5097 25.6778L25.1948 25.1774C24.9422 25.3556 24.6932 25.4413 24.4076 25.4413C23.8731 25.4413 23.496 25.0883 23.496 24.5296C23.496 23.9983 23.8731 23.6452 24.4076 23.6178C24.6896 23.6178 24.9422 23.7069 25.1948 23.8817L25.5097 23.3813C25.1948 23.1448 24.88 23.0591 24.4406 23.0591C23.4667 23.0557 22.8369 23.6761 22.8369 24.5296ZM28.9331 24.5296V23.1174H28.2741V23.4704C28.0544 23.2065 27.7395 23.0591 27.3294 23.0591C26.48 23.0591 25.8209 23.6761 25.8209 24.5296C25.8209 25.383 26.48 26 27.3294 26C27.7688 26 28.0837 25.8526 28.2741 25.5887V25.9417H28.9331V24.5296ZM26.5129 24.5296C26.5129 24.0291 26.8571 23.6178 27.4246 23.6178C27.9592 23.6178 28.3363 24.0017 28.3363 24.5296C28.3363 25.03 27.9592 25.4413 27.4246 25.4413C26.8608 25.4105 26.5129 25.0266 26.5129 24.5296ZM18.6263 23.0557C17.7476 23.0557 17.1178 23.6452 17.1178 24.5261C17.1178 25.4105 17.7476 25.9966 18.6593 25.9966C19.0986 25.9966 19.538 25.88 19.8858 25.6127L19.571 25.1705C19.3183 25.3488 19.0034 25.4653 18.6922 25.4653C18.2821 25.4653 17.8757 25.2871 17.7805 24.7901H20.0103C20.0103 24.7009 20.0103 24.6427 20.0103 24.5536C20.0396 23.6452 19.4721 23.0557 18.6263 23.0557ZM18.6263 23.587C19.0364 23.587 19.3183 23.8235 19.3806 24.2622H17.8098C17.8721 23.8817 18.154 23.587 18.6263 23.587ZM35 24.5296V22H34.341V23.4704C34.1213 23.2065 33.8064 23.0591 33.3963 23.0591C32.5469 23.0591 31.8878 23.6761 31.8878 24.5296C31.8878 25.383 32.5469 26 33.3963 26C33.8357 26 34.1506 25.8526 34.341 25.5887V25.9417H35V24.5296ZM32.5798 24.5296C32.5798 24.0291 32.924 23.6178 33.4915 23.6178C34.0261 23.6178 34.4032 24.0017 34.4032 24.5296C34.4032 25.03 34.0261 25.4413 33.4915 25.4413C32.924 25.4105 32.5798 25.0266 32.5798 24.5296ZM10.5164 24.5296V23.1174H9.85732V23.4704C9.63763 23.2065 9.32276 23.0591 8.91268 23.0591C8.06324 23.0591 7.40419 23.6761 7.40419 24.5296C7.40419 25.383 8.06324 26 8.91268 26C9.35205 26 9.66693 25.8526 9.85732 25.5887V25.9417H10.5164V24.5296ZM8.0669 24.5296C8.0669 24.0291 8.41107 23.6178 8.97859 23.6178C9.51315 23.6178 9.89027 24.0017 9.89027 24.5296C9.89027 25.03 9.51315 25.4413 8.97859 25.4413C8.41107 25.4105 8.0669 25.0266 8.0669 24.5296Z" fill="black"/>
<path d="M23.4912 2.42725H13.4785V18.5585H23.4912V2.42725Z" fill="#FF5A00"/>
<path d="M14.1452 10.493C14.1452 7.21557 15.8633 4.30675 18.4998 2.42731C16.5595 1.05924 14.1118 0.232422 11.442 0.232422C5.11744 0.232422 0 4.82144 0 10.493C0 16.1645 5.11744 20.7535 11.442 20.7535C14.1118 20.7535 16.5595 19.9267 18.4998 18.5586C15.8596 16.7057 14.1452 13.7704 14.1452 10.493Z" fill="#EB001B"/>
<path d="M36.9988 10.493C36.9988 16.1645 31.8814 20.7535 25.5568 20.7535C22.887 20.7535 20.4394 19.9267 18.499 18.5586C21.1688 16.6759 22.8537 13.7704 22.8537 10.493C22.8537 7.21557 21.1355 4.30675 18.499 2.42731C20.4357 1.05924 22.8833 0.232422 25.5531 0.232422C31.8814 0.232422 36.9988 4.85133 36.9988 10.493Z" fill="#F79E1B"/>
</svg>
