<svg width="52" height="19" viewBox="0 0 52 19" fill="none" xmlns="http://www.w3.org/2000/svg">
<path fill-rule="evenodd" clip-rule="evenodd" d="M4.80858 0.00310596C5.27314 -0.00046029 6.65379 -0.160025 7.2386 2.3727C7.63254 4.07878 8.26006 6.8734 9.12116 10.7566H9.47185C10.3953 6.66266 11.0297 3.86804 11.3749 2.3727C11.9659 -0.186408 13.4431 0.00315611 14.034 0.00315611L18.593 0.00316341V18.2012H13.9464V7.47681H13.6348L11.0445 18.2012H7.5485L4.95823 7.46886H4.64664V18.2012H0V0.00316341L4.80858 0.00310596ZM25.2655 0.00316341V10.7356H25.6362L28.787 1.91039C29.3986 0.154152 30.7022 0.00316341 30.7022 0.00316341H35.1988V18.2013H30.4551V7.46886H30.0844L26.9954 16.294C26.3837 18.0423 25.0184 18.2013 25.0184 18.2013H20.5218V0.00316341H25.2655ZM51.5951 8.65103C50.9334 11.0571 48.8554 12.7803 46.5548 12.7803H41.5801V18.2013H37.0691V8.65103H51.5951Z" fill="#0F754E"/>
<path fill-rule="evenodd" clip-rule="evenodd" d="M46.7718 0.00317383H36.832C37.0686 4.05469 39.7876 7.52305 42.6024 7.52305H51.908C52.445 4.15577 50.5963 0.00317383 46.7718 0.00317383Z" fill="url(#paint0_linear_260_1573)"/>
<defs>
<linearGradient id="paint0_linear_260_1573" x1="51.9992" y1="4.7335" x2="36.832" y2="4.7335" gradientUnits="userSpaceOnUse">
<stop stop-color="#1F5CD7"/>
<stop offset="1" stop-color="#02AEFF"/>
</linearGradient>
</defs>
</svg>
