<svg width="113" height="120" viewBox="0 0 113 120" fill="none" xmlns="http://www.w3.org/2000/svg">
<path d="M61.9052 90.3456C62.1664 90.0844 62.6018 90.0554 62.892 90.3166C63.1822 90.6068 63.1822 91.0421 62.921 91.3324C62.3115 91.9709 61.7891 92.6674 61.4409 93.3639C61.0926 94.0604 60.8604 94.786 60.7734 95.5115C60.7444 95.8888 60.3961 96.1791 59.9898 96.15C59.6125 96.092 59.3223 95.7437 59.3803 95.3664C59.4674 94.4377 59.7576 93.5671 60.1639 92.7254C60.5992 91.8838 61.1797 91.1002 61.9052 90.3456ZM44.7822 16.3104C44.434 16.1072 44.2889 15.7009 44.492 15.3527C44.6661 15.0044 45.1015 14.8593 45.4497 15.0624C49.2226 17.0359 53.4018 18.6322 57.8712 19.764C58.5967 17.6744 59.4093 15.7299 60.309 13.9886C63.5595 7.74888 68.0289 3.77287 73.0497 3.4246V2.14763C73.0497 1.74132 73.3689 1.4511 73.7462 1.4511C74.1525 1.4511 74.4718 1.74132 74.4718 2.14763V3.4246C79.4636 3.77287 83.933 7.74888 87.1834 13.9886C88.0831 15.7299 88.9248 17.6744 89.6213 19.764C94.0907 18.6322 98.2699 17.0359 102.072 15.0624C102.42 14.8593 102.826 15.0044 103.029 15.3527C103.204 15.7009 103.058 16.1072 102.71 16.3104C98.8503 18.3419 94.6131 19.9672 90.0566 21.128C91.5948 26.1489 92.4945 31.9823 92.5525 38.193H110.517C110.894 38.193 111.214 38.5123 111.214 38.8895C111.214 39.2958 110.894 39.6151 110.517 39.6151H92.5525C92.4945 45.7387 91.5948 51.5141 90.1147 56.5059C94.6421 57.6668 98.8793 59.292 102.71 61.2946C103.058 61.4977 103.204 61.904 103.029 62.2523C102.826 62.6006 102.42 62.7457 102.072 62.5715C98.2989 60.569 94.1197 58.9728 89.6793 57.8409C88.9538 60.0176 88.1121 62.0201 87.1834 63.8195C83.933 70.0592 79.4636 74.0062 74.4718 74.3545V75.6605C74.4718 76.0378 74.1525 76.357 73.7462 76.357C73.3689 76.357 73.0497 76.0378 73.0497 75.6605V74.3545C68.0289 74.0062 63.5595 70.0592 60.309 63.8195C59.3803 62.0201 58.5387 60.0176 57.8131 57.8409C53.3728 58.9728 49.1936 60.569 45.4497 62.5715C45.1015 62.7457 44.6661 62.6006 44.492 62.2523C44.2889 61.904 44.434 61.4977 44.7822 61.2946C48.6131 59.292 52.8504 57.6668 57.4068 56.5059C55.8977 51.5141 55.027 45.7387 54.9399 39.6151H37.0043C36.598 39.6151 36.2788 39.2958 36.2788 38.8895C36.2788 38.5123 36.598 38.193 37.0043 38.193H54.9399C55.027 31.9823 55.9267 26.1489 57.4358 21.128C52.9084 19.9672 48.6422 18.3419 44.7822 16.3104ZM59.2642 20.1123C63.6175 21.099 68.2611 21.6795 73.0497 21.7085V4.78864C68.6093 5.1369 64.5753 8.79368 61.586 14.5691C60.7153 16.2523 59.9317 18.1098 59.2642 20.1123ZM74.4718 21.7085C79.2604 21.6795 83.8749 21.099 88.2572 20.1123C87.5607 18.1098 86.7771 16.2523 85.9065 14.5691C82.9172 8.79368 78.8831 5.1369 74.4718 4.78864V21.7085ZM88.6926 21.4473C84.1651 22.4921 79.4055 23.0725 74.4718 23.1306V38.193H91.1304C91.0724 32.0984 90.1727 26.381 88.6926 21.4473ZM73.0497 23.1306C68.0869 23.0725 63.3273 22.4921 58.8289 21.4473C57.3198 26.381 56.4201 32.0984 56.362 38.193H73.0497V23.1306ZM58.7709 56.1577C63.2983 55.1129 68.0869 54.5324 73.0497 54.4744V39.6151H56.362C56.4201 45.6517 57.2907 51.282 58.7709 56.1577ZM91.1304 39.6151H74.4718V54.4744C79.4345 54.5324 84.2232 55.1129 88.7216 56.1577C90.2017 51.282 91.0724 45.6517 91.1304 39.6151ZM88.3153 57.5217C83.933 56.5059 79.2894 55.9255 74.4718 55.8965V73.0195C78.8831 72.6712 82.9172 68.9854 85.9065 63.239C86.8061 61.4977 87.6188 59.5823 88.3153 57.5217ZM73.0497 73.0195V55.8965C68.232 55.9255 63.5885 56.5059 59.2062 57.5217C59.9027 59.5823 60.6863 61.4977 61.586 63.239C64.5753 68.9854 68.6093 72.6712 73.0497 73.0195ZM7.83716 79.4333V107.672H6.12486V79.4333H7.83716Z" fill="#0F75BD"/>
<path d="M73.6301 93.5381C83.2945 89.8232 86.3708 88.5463 95.0194 82.1614C98.0377 79.9267 100.882 79.4333 102.971 80.1299C104.103 80.4781 105.032 81.2037 105.67 82.1614C106.28 83.0611 106.657 84.1639 106.686 85.4119C106.715 87.0081 106.193 88.9236 104.974 90.897C107.209 90.781 108.979 91.1292 110.198 91.7677C111.359 92.4062 112.113 93.3059 112.462 94.3797C112.81 95.4535 112.752 96.6144 112.229 97.7753C111.33 99.8068 108.979 102.042 105.09 103.87C101.23 105.698 96.2093 107.73 92.0301 109.413C89.5342 110.429 87.3285 111.329 85.9065 111.967C83.6718 112.925 78.9702 114.927 74.1816 116.611C71.1052 117.684 68.0289 118.642 65.533 119.077C60.6283 119.948 56.4201 120.209 52.6472 119.832C48.7582 119.426 45.3917 118.352 42.2863 116.582L30.4744 109.877C28.5299 108.775 25.8599 108.165 23.0737 107.933C19.5621 107.643 15.9633 107.933 13.2933 108.513L2.6132 110.922C1.45231 111.183 0.320455 110.458 0.0592565 109.297C0.00121238 109.123 0.00121238 108.92 0.00121238 108.746V81.4649C-0.0278097 80.5942 0.465565 79.7526 1.33623 79.4043L14.5993 73.9482C20.2586 71.6264 26.8466 70.2914 33.2895 70.3785C39.21 70.4655 45.0724 71.7715 50.0352 74.5576C52.9374 76.2119 55.7235 78.4176 58.5677 80.6523C61.8762 83.2643 65.2428 85.9343 68.5803 87.4434C71.3664 88.7204 72.9046 90.5778 73.456 92.5803C73.5431 92.8996 73.6011 93.2188 73.6301 93.5381ZM73.7462 0C84.4844 0 94.2068 4.35331 101.259 11.4057C108.282 18.429 112.665 28.1514 112.665 38.8895C112.665 49.6567 108.282 59.3791 101.259 66.4024C94.2068 73.4548 84.4844 77.8081 73.7462 77.8081C63.0081 77.8081 53.2857 73.4548 46.2333 66.4024C39.21 59.3791 34.8567 49.6567 34.8567 38.8895C34.8567 28.1514 39.21 18.429 46.2333 11.4057C53.2857 4.35331 63.0081 0 73.7462 0ZM98.2118 14.424C91.9721 8.1552 83.2945 4.29526 73.7462 4.29526C64.198 4.29526 55.5494 8.1552 49.2806 14.424C43.0119 20.6927 39.152 29.3413 39.152 38.8895C39.152 48.4668 43.0119 57.1154 49.2806 63.3841C55.5494 69.6239 64.198 73.5128 73.7462 73.5128C83.2945 73.5128 91.9721 69.6239 98.2118 63.3841C104.481 57.1154 108.37 48.4668 108.37 38.8895C108.37 29.3413 104.481 20.6927 98.2118 14.424ZM4.26745 82.8289V106.163L12.3356 104.334C15.4119 103.667 19.504 103.318 23.422 103.638C26.7595 103.928 30.039 104.712 32.593 106.163L44.4049 112.867C46.9879 114.347 49.803 115.218 53.0825 115.566C56.4201 115.914 60.251 115.653 64.8074 114.84C67.0712 114.463 69.9153 113.592 72.7885 112.577C77.345 110.98 81.9885 109.007 84.1651 108.049C85.6743 107.382 87.909 106.482 90.4049 105.437C94.6421 103.725 99.721 101.664 103.262 100.01C106.164 98.6459 107.789 97.2239 108.311 96.092C108.37 95.8888 108.428 95.7728 108.399 95.7147C108.399 95.6857 108.311 95.6276 108.166 95.5406C107.151 95.0182 105.148 94.9311 102.101 95.6276L85.4131 99.4876C83.5557 99.9229 81.1759 100.155 78.6219 100.3C75.8358 100.474 72.8465 100.474 70.2055 100.416C67.9999 102.042 64.8655 102.999 61.3828 102.506C59.5835 102.274 57.8421 101.751 56.1589 101.055C54.4756 100.387 52.8794 99.5746 51.3122 98.762C50.9639 98.5589 50.4415 98.2687 49.8901 97.9494C47.7135 96.6724 44.7242 94.9311 40.7772 94.844C39.5873 94.815 38.6586 93.8283 38.6876 92.6674C38.7166 91.4775 39.6743 90.5488 40.8643 90.5778C45.9431 90.6649 49.4838 92.7254 52.0668 94.2346C52.4731 94.4958 52.8504 94.728 53.3437 94.9601C54.8239 95.7728 56.304 96.4983 57.7551 97.0788C59.1481 97.6592 60.5702 98.0655 61.9633 98.2686C64.256 98.5879 66.2585 98.0074 67.6226 96.9917C67.8257 96.7305 68.0579 96.5273 68.3481 96.3532C68.7544 95.9469 69.0447 95.5116 69.2188 95.0472C69.3929 94.6119 69.4219 94.1185 69.3059 93.6832C69.1027 92.8706 68.3191 92.0289 66.81 91.3324C63.0081 89.5911 59.4384 86.7759 55.9267 83.9898C53.2276 81.8712 50.5286 79.7526 47.9166 78.3015C43.6213 75.8636 38.4844 74.7318 33.2315 74.6737C27.369 74.5867 21.3905 75.7766 16.2245 77.9242L4.26745 82.8289ZM98.1828 92.145C98.2118 92.116 98.2408 92.087 98.2408 92.0579C101.259 89.562 102.449 87.1822 102.391 85.4989C102.391 85.0926 102.304 84.7734 102.159 84.5412C102.043 84.3961 101.869 84.251 101.636 84.193C100.766 83.9027 99.3437 84.28 97.5733 85.615C89.7664 91.3904 86.2838 93.1608 79.1734 95.9759C81.1759 95.8598 83.0333 95.6276 84.4554 95.3084L98.1828 92.145Z" fill="#0F75BD"/>
</svg>
