<svg width="80" height="120" viewBox="0 0 80 120" fill="none" xmlns="http://www.w3.org/2000/svg">
<path d="M18.2346 51.9651C18.4809 51.6573 18.9119 51.6573 19.2197 51.842C19.5276 52.0883 19.5892 52.5192 19.3429 52.8271C19.035 53.1965 18.7888 53.6275 18.604 53.9969C18.3578 54.4279 18.1731 54.8589 18.0499 55.3515C17.9268 55.7209 17.5574 55.9672 17.1879 55.844C16.8185 55.7209 16.5722 55.3515 16.6954 54.982C16.8801 54.3663 17.0648 53.8738 17.3111 53.3812C17.6189 52.8887 17.8652 52.4577 18.2346 51.9651ZM53.699 25.49C53.7605 25.8594 53.5758 26.2288 53.1448 26.352C52.7754 26.4135 52.406 26.2288 52.3444 25.7978L51.4824 22.2884L46.0643 41.6829C46.0027 42.0523 45.6333 42.2986 45.2639 42.237L37.4445 40.6978L31.2875 59.4151C31.1643 59.7845 30.7333 60.0308 30.3639 59.9076C29.9945 59.7845 29.8098 59.3535 29.9329 58.9841L36.2746 39.7127C36.3978 39.3433 36.7672 39.1585 37.0751 39.2201L44.8945 40.7594L50.1279 21.9189L47.6035 24.5049C47.3573 24.8127 46.9263 24.8127 46.6184 24.5664C46.3721 24.2586 46.3721 23.8276 46.6184 23.5198L51.0515 18.9636C51.1746 18.8404 51.2362 18.7789 51.4209 18.7789C51.7903 18.6557 52.1597 18.902 52.2213 19.2714L53.699 25.49ZM48.7734 10.2206C48.7734 10.7748 48.5271 11.2673 48.1577 11.5752C47.8498 11.9446 47.3573 12.1909 46.8031 12.1909H32.7036C32.211 12.1909 31.6569 11.9446 31.349 11.5752C30.9796 11.2673 30.7333 10.7748 30.7333 10.2206C30.7333 9.6665 30.9796 9.17394 31.349 8.86609C31.6569 8.49667 32.211 8.25039 32.7036 8.25039H46.8031C47.3573 8.25039 47.8498 8.49667 48.1577 8.86609C48.5271 9.17394 48.7734 9.6665 48.7734 10.2206ZM47.1725 10.59C47.2957 10.5285 47.3573 10.3438 47.3573 10.2206C47.3573 10.0359 47.2957 9.91278 47.1725 9.78964C47.0494 9.72807 46.9263 9.6665 46.8031 9.6665H32.7036C32.5804 9.6665 32.4573 9.72807 32.3342 9.78964C32.2726 9.91278 32.211 10.0359 32.211 10.2206C32.211 10.4053 32.2726 10.5285 32.3342 10.59C32.4573 10.7132 32.5804 10.7748 32.7036 10.7748H46.8031C46.9263 10.7748 47.0494 10.7132 47.1725 10.59ZM39.7841 83.5505C38.4912 83.5505 37.3213 82.9964 36.4594 82.196C35.5974 81.334 35.1048 80.1642 35.1048 78.8712C35.1048 77.5783 35.5974 76.4084 36.4594 75.608C37.3213 74.746 38.4912 74.1919 39.7841 74.1919C41.0155 74.1919 42.1854 74.746 43.0473 75.608C43.9093 76.4084 44.4019 77.5783 44.4019 78.8712C44.4019 80.1642 43.9093 81.334 43.0473 82.196C42.1854 82.9964 41.0155 83.5505 39.7841 83.5505ZM37.4445 81.2109C38.0602 81.765 38.8606 82.1344 39.7841 82.1344C40.6461 82.1344 41.4465 81.765 42.0622 81.2109C42.6779 80.5952 42.9858 79.7948 42.9858 78.8712C42.9858 78.0092 42.6779 77.1473 42.0622 76.5931C41.4465 75.9774 40.6461 75.608 39.7841 75.608C38.8606 75.608 38.0602 75.9774 37.4445 76.5931C36.8903 77.1473 36.5209 78.0092 36.5209 78.8712C36.5209 79.7948 36.8903 80.5952 37.4445 81.2109ZM22.3598 76.7163C22.4214 76.3468 22.7908 76.1006 23.1602 76.1621C23.5296 76.2237 23.7759 76.5931 23.7144 76.9625C23.7144 77.2088 23.6528 77.3935 23.6528 77.6398C23.5912 77.8861 23.5912 78.0708 23.5912 78.3171C23.5912 78.6865 23.2834 79.0559 22.9139 79.0559C22.5445 79.0559 22.2367 78.6865 22.2367 78.3171C22.2367 78.0708 22.2367 77.763 22.2367 77.5167C22.2982 77.2088 22.2982 76.9626 22.3598 76.7163ZM20.4511 65.6952C20.5127 65.3258 20.8821 65.0795 21.2516 65.1411C21.621 65.2027 21.8673 65.5721 21.8057 65.9415C21.7441 66.2494 21.6825 66.5572 21.6825 66.8651C21.6825 67.1729 21.6825 67.4808 21.6825 67.8502C21.7441 68.2196 21.4363 68.589 21.0668 68.589C20.6974 68.6506 20.328 68.3427 20.328 67.9733C20.2664 67.5423 20.2664 67.1729 20.2664 66.8035C20.328 66.4341 20.328 66.0647 20.4511 65.6952ZM12.9396 25.2437C13.0627 24.8743 13.4322 24.6896 13.8016 24.7512C14.171 24.8743 14.4173 25.2437 14.2941 25.6131C14.171 26.0441 14.1094 26.5367 14.1094 26.9677C14.0479 27.4602 14.0479 27.9528 14.1094 28.4454C14.171 28.8148 13.9247 29.1842 13.5553 29.2458C13.1243 29.2458 12.8165 28.9995 12.7549 28.6301C12.6933 28.0144 12.6318 27.4602 12.6933 26.9061C12.7549 26.352 12.8165 25.7978 12.9396 25.2437ZM36.5209 113.72C36.0899 113.72 35.7821 113.412 35.7821 113.043C35.7821 112.612 36.0899 112.304 36.5209 112.304H74.6328C75.0022 112.304 75.31 112.612 75.31 113.043C75.31 113.412 75.0022 113.72 74.6328 113.72H36.5209ZM62.3188 43.961C62.0109 44.2073 61.5799 44.0841 61.3952 43.7763C61.1489 43.4684 61.2721 43.0375 61.5799 42.7912C61.8262 42.668 62.0725 42.4833 62.3188 42.237C62.5651 42.0523 62.8113 41.8061 63.0576 41.5598C63.3039 41.3135 63.7349 41.2519 64.0427 41.4982C64.289 41.8061 64.3506 42.237 64.1043 42.5449C63.7965 42.7912 63.5502 43.099 63.2423 43.3453C62.9345 43.5916 62.6882 43.7763 62.3188 43.961ZM38.2449 98.8815C37.937 99.0046 37.506 98.8199 37.3829 98.4505C37.2598 98.0811 37.4445 97.7117 37.8139 97.5885C39.3531 97.096 40.7693 96.4187 42.0622 95.5567C42.1238 95.5567 42.1238 95.5567 42.1854 95.4951C42.6164 95.2489 43.0474 94.941 43.5399 94.5716C45.3254 93.2786 46.9263 91.6162 48.5271 89.7075C48.7118 89.3997 49.2044 89.3997 49.4506 89.646C49.7585 89.8923 49.8201 90.3232 49.5738 90.6311C48.5271 91.8625 47.4804 93.0323 46.3106 94.079C48.7734 93.4017 51.2977 92.9092 53.8221 92.6629C57.7626 92.2935 61.6415 92.5398 65.0279 93.3402C65.3973 93.4017 65.582 93.7712 65.5204 94.2022C65.4588 94.5716 65.0279 94.7563 64.6584 94.6947C61.4568 93.8943 57.7626 93.7096 53.9452 94.079C50.251 94.4484 46.4337 95.3104 42.8011 96.7881C41.385 97.6501 39.8457 98.3889 38.2449 98.8815Z" fill="#0F75BD"/>
<path d="M63.427 56.5213C63.6117 56.8291 63.6733 57.1986 63.6733 57.568V82.6886C63.6733 84.9051 62.7498 86.9369 61.3336 88.4146C59.856 89.8923 57.8242 90.8158 55.5461 90.8158H29.9945C30.3024 91.1852 30.6102 91.4931 30.9181 91.8009C36.3978 97.4654 36.7056 97.8348 37.8139 106.701L38.9222 115.567H72.4778C72.17 105.593 73.0935 97.0344 74.0786 88.0452C74.3249 85.6439 74.6328 83.1811 74.8175 80.9646C75.1253 77.9477 75.0638 74.9307 74.7559 71.8522C74.4481 68.6506 73.7708 65.449 72.8472 62.3705C71.4311 57.5064 69.3377 52.7655 67.2444 47.9631C65.7667 44.6383 64.2274 41.2519 62.8729 37.5577C62.6266 36.8805 62.3188 36.08 62.0109 35.8338C62.0109 35.7722 61.8878 35.9569 61.4568 36.2032C60.6564 36.7573 59.9791 37.804 59.6097 39.2817C59.2403 40.6978 59.1787 42.4218 59.6712 44.392C60.1022 46.4854 60.6564 48.5172 61.3336 50.549C61.9493 52.5808 62.6266 54.5511 63.427 56.5213ZM24.1453 75.6696C22.483 74.9923 20.759 74.4382 19.035 74.0072C17.4342 73.5762 15.8334 73.3299 14.3557 73.2683C13.5553 73.2068 13.0012 73.5146 12.6933 74.0072C12.5086 74.2535 12.3855 74.6229 12.3239 75.0539C12.2623 75.4233 12.2623 75.9159 12.3855 76.3468C12.6933 77.1473 13.3706 77.9477 14.4789 78.2555C17.4342 79.0559 19.5276 79.1791 21.9904 79.4253C22.9755 79.4869 23.9606 79.5485 25.3152 79.7332C25.8693 79.7948 26.1772 79.7332 26.3619 79.5485C26.4234 79.4253 26.5466 79.3022 26.5466 79.0559C26.6081 78.8096 26.5466 78.4402 26.485 78.0708C26.1772 77.1473 25.4383 76.1621 24.1453 75.6696ZM13.2475 22.8425C11.8929 22.6578 10.9078 23.1503 10.3537 23.8892C9.98424 24.3202 9.73796 24.8743 9.61482 25.4284C9.49168 26.0441 9.49168 26.7214 9.67639 27.3371C9.98424 28.6301 10.9078 29.8615 12.5702 30.4156C13.1859 30.6003 14.0479 30.785 15.033 30.785C15.7718 30.785 16.5722 30.6619 17.1879 30.354C17.6805 30.1077 18.0499 29.7383 18.2962 29.1226C18.4193 28.7532 18.4809 28.3222 18.4809 27.7681C18.4809 26.2904 17.9883 25.1821 17.3111 24.5049C17.1264 24.3817 17.0032 24.2586 16.8801 24.1355C16.7569 24.0739 16.6954 24.0123 16.6338 23.9507C15.7103 23.335 14.5404 22.9656 13.2475 22.8425ZM6.90574 21.1185C8.38342 19.2714 10.7231 18.1016 13.74 18.471C14.4789 18.5326 15.1561 18.6557 15.8334 18.8404V8.12724C15.8334 5.91072 16.7569 3.87891 18.2346 2.40123C19.6507 0.92355 21.6825 0 23.9606 0H55.5461C57.8242 0 59.856 0.92355 61.2721 2.40123H61.3336C62.7498 3.87891 63.6733 5.91072 63.6733 8.12724V31.7086C64.1043 31.8933 64.4737 32.1396 64.8431 32.4474C65.9514 33.371 66.5671 34.7871 66.9981 36.0185C68.2911 39.4048 69.7687 42.8527 71.2464 46.2391C73.4629 51.1031 75.5563 55.9672 77.0956 61.1391C78.0807 64.4638 78.758 67.9118 79.1274 71.4212C79.4968 74.746 79.4968 78.0708 79.189 81.3956C78.9427 83.9815 78.6964 86.2596 78.4501 88.5377C77.4034 98.0195 76.4799 107.07 76.9109 117.66C76.9724 118.892 76.0489 119.938 74.8175 120H36.9519C35.8437 120 34.8585 119.076 34.797 117.968L33.4424 107.255C32.5189 99.805 32.2726 99.4972 27.778 94.8794C26.6697 93.7712 25.4383 92.4166 23.8991 90.8158C21.6825 90.8158 19.6507 89.8923 18.2346 88.4146C16.8185 87.06 15.9565 85.1514 15.8334 83.058C15.033 82.9348 14.2326 82.7501 13.3706 82.5039C10.5384 81.765 8.87598 79.7948 8.19871 77.5782C7.89086 76.5931 7.82929 75.4849 7.95243 74.4382C8.07557 73.3915 8.44499 72.4064 9.06069 71.4828C6.22847 70.4977 4.56608 68.3427 3.88881 65.9415C3.51939 64.7717 3.45782 63.5403 3.64253 62.3705C3.82724 61.2006 4.25823 60.0924 4.9355 59.1072C5.73591 57.999 6.84417 57.0754 8.19871 56.6444C6.84417 55.4746 5.18178 53.8122 2.65741 51.0416C-0.0516743 48.0862 -0.482665 44.3304 0.440886 41.2519C0.871876 40.0205 1.42601 38.8507 2.22642 37.9271C3.0884 36.942 4.07352 36.1416 5.24335 35.6491C6.72103 35.0334 8.38342 34.9718 10.0458 35.5875L14.7867 36.7573L10.9078 34.4792C7.76772 33.371 5.98219 30.9697 5.36649 28.3838C5.05864 27.0908 5.05864 25.7978 5.30492 24.5664C5.5512 23.335 6.10533 22.1036 6.90574 21.1185ZM20.2049 21.2417C20.2664 21.2417 20.328 21.3032 20.3896 21.3648C21.9288 22.9041 22.8524 24.9974 22.8524 27.7681C22.8524 28.8148 22.7292 29.7383 22.4214 30.5387C21.9904 31.8933 21.19 32.8784 20.2049 33.6172V44.0226C21.1284 44.823 22.1135 45.6234 23.0987 46.4238C26.1156 48.825 27.4701 52.3961 27.4086 55.413C27.347 56.706 27.1007 57.9374 26.6082 58.9841C26.3003 59.5998 25.9309 60.2155 25.4999 60.6465C27.5317 62.1242 28.8862 64.156 29.5019 66.1878C29.8098 67.2961 29.8714 68.4043 29.6867 69.3894C29.5019 70.5593 29.0094 71.606 28.1474 72.4064C28.0243 72.5295 27.9011 72.6526 27.778 72.7142C29.3172 73.884 30.3024 75.3617 30.7333 76.901C30.9796 77.8861 31.0412 78.8712 30.9181 79.8563C30.7333 80.8415 30.2408 81.8266 29.5635 82.5654C28.5168 83.6737 26.916 84.351 24.8226 84.1047C23.7759 83.9815 22.6677 83.8584 21.621 83.7968C21.19 83.7968 20.759 83.7353 20.3896 83.6737C20.5127 84.2894 20.8821 84.9051 21.3131 85.3361C21.9904 86.0133 22.9139 86.3828 23.9606 86.3828H55.5461C56.5928 86.3828 57.5163 86.0133 58.1936 85.3361C58.8708 84.6588 59.3018 83.7353 59.3018 82.6886V57.9374C58.4399 55.9056 57.701 53.8738 57.0853 51.9035C56.4696 49.7486 55.8539 47.5936 55.3614 45.3771C54.7457 42.668 54.8072 40.2052 55.3614 38.1734C55.9771 35.6491 57.3316 33.7404 58.9324 32.6321C59.0555 32.509 59.1787 32.4474 59.3018 32.3858V8.12724C59.3018 7.08055 58.8708 6.157 58.1936 5.47973C57.5163 4.80246 56.5928 4.43304 55.5461 4.43304H23.9606C22.9139 4.43304 21.9904 4.80246 21.3131 5.47973C20.6359 6.157 20.2049 7.08055 20.2049 8.12724V21.2417ZM20.328 49.8717C18.2346 48.2093 16.326 46.4238 14.4789 44.6998C12.7549 43.1606 11.1541 41.6829 9.49168 40.3284C8.50656 39.5895 7.58301 39.4664 6.90574 39.7127C6.41318 39.8974 5.98219 40.2668 5.61277 40.6978C5.18178 41.1904 4.87393 41.8676 4.68922 42.5449C4.13509 44.2689 4.38137 46.4238 5.92062 48.0862C11.4004 54.0585 12.0161 54.3048 16.5722 56.275C17.5574 56.706 18.7888 57.1986 20.0817 57.8143C20.9437 58.1837 21.5594 58.1837 21.9288 57.9374C22.1751 57.8143 22.4214 57.5064 22.6061 57.137C22.8524 56.6444 22.9755 56.0287 22.9755 55.3515C23.0371 53.5044 22.2367 51.3494 20.328 49.8717ZM21.8673 63.6634C19.9586 62.863 17.9883 62.1857 16.0797 61.6932C14.2326 61.2006 12.3855 60.8928 10.6615 60.7696C9.61482 60.6465 8.93755 61.0159 8.50656 61.6316C8.26028 62.001 8.07557 62.4936 8.014 63.0477C7.89086 63.6018 7.95243 64.156 8.13714 64.7717C8.44499 65.9415 9.30697 67.0498 10.7847 67.4808C13.9863 68.3427 16.326 68.589 18.9119 68.8969H18.9735C20.3896 69.02 21.9288 69.2047 23.5296 69.451H23.5912C24.3916 69.5741 24.8842 69.451 25.1305 69.2047C25.2536 69.1432 25.3152 68.9584 25.3768 68.7122C25.4383 68.3427 25.3768 67.8502 25.2536 67.3576C24.8226 65.9415 23.6528 64.4638 21.8673 63.6634Z" fill="#0F75BD"/>
</svg>
