<svg width="182" height="120" viewBox="0 0 182 120" fill="none" xmlns="http://www.w3.org/2000/svg">
<path d="M176.577 9.81614C168.417 11.8482 160.407 14.5741 152.546 17.5974C144.336 20.7198 135.679 17.2504 127.37 13.9793C116.673 9.71702 106.274 7.48673 94.9803 5.60338C92.4926 5.15732 89.5571 5.30601 87.3182 6.49549C83.8354 8.37885 80.3029 10.4109 76.6709 12.6412C73.1383 14.8219 69.6058 17.1513 66.0235 19.6294C64.8294 20.5215 64.0333 21.8597 63.4861 23.4457C62.0432 27.5097 62.3417 32.2677 60.9984 36.7283C60.3018 39.1072 59.3565 41.4366 58.1126 43.9643C57.5156 45.2033 57.1175 47.0371 57.9136 48.2762C58.7594 49.6143 60.6501 49.7135 62.0432 49.6144C72.1432 48.8214 77.1186 42.527 79.3576 33.1598C80.9497 26.6672 87.4177 24.0404 93.5374 25.5273C96.6719 26.2707 99.9557 28.1045 102.792 31.2764C108.961 38.0664 115.33 42.9235 122.196 48.1275C124.932 50.1595 127.718 52.2411 130.306 54.3227C133.39 56.8008 136.177 58.932 138.863 61.0136C141.998 63.343 144.884 65.5733 147.869 68.0018C155.133 56.3052 164.288 53.0341 175.184 49.1187L176.577 48.6231V9.81614ZM108.165 110.08C107.966 110.575 107.767 111.071 107.518 111.517C106.672 112.905 105.478 113.995 104.135 114.788C102.792 115.532 101.299 116.027 99.7567 116.226L99.6572 116.275C96.7217 116.672 93.4877 116.126 90.9005 114.59L90.7512 114.491C90.3532 115.333 89.9552 116.126 89.4576 116.969C88.0148 119.249 85.7261 120.091 83.1886 119.992C81.7458 119.893 80.2531 119.497 78.86 118.852C77.5167 118.208 76.2231 117.316 75.1782 116.275C74.0836 115.234 73.2876 113.995 72.8398 112.657C71.2974 113.698 69.4068 114.045 67.5161 113.847C65.9737 113.698 64.3816 113.153 62.9388 112.31C61.5456 111.517 60.2023 110.476 59.2072 109.287C57.5653 107.354 56.6698 104.975 56.9683 102.596C54.8289 103.835 52.4407 103.934 50.152 103.29C48.5599 102.794 47.0175 101.902 45.7239 100.762C44.4303 99.6223 43.3357 98.2346 42.5894 96.7477C41.6441 94.9139 41.1963 92.9315 41.3953 90.9986L41.1963 91.1472C38.4598 93.3775 35.2756 93.5758 32.4396 92.535C30.7977 91.9402 29.2553 90.8994 27.9617 89.6108C26.6681 88.3718 25.6233 86.8354 24.9267 85.1998C23.5336 81.9783 23.4839 78.3603 25.7228 75.3865C27.4642 73.0076 29.5041 70.8764 31.7928 68.8444C32.3401 68.3983 32.8874 67.9523 33.3849 67.5062L32.6884 66.6637C30.8972 64.4829 29.3051 62.55 27.4642 60.6667C24.8272 57.9903 21.444 55.8096 17.1651 54.4714C13.3838 53.2819 8.8562 52.7368 3.53253 53.0341C3.28376 53.1332 2.98524 53.1828 2.68671 53.1828C1.1941 53.1828 0 51.9438 0 50.4569V5.7025C0.049754 4.21565 1.2936 3.02616 2.78622 3.07572C7.96063 3.17485 13.1848 3.52178 18.3592 4.0174C23.5336 4.56258 28.708 5.30601 33.9322 6.24768C40.4002 7.38761 47.2165 7.93279 54.0826 8.13104C60.8988 8.37885 67.2176 8.23016 73.7851 8.13104L73.8349 8.08147C77.4172 5.85119 81.0492 3.76959 84.7808 1.78711C88.1143 0.00288402 92.1941 -0.344049 95.8759 0.300256C107.618 2.28273 118.265 4.56258 129.311 8.97359C136.674 11.8977 144.386 14.9706 150.605 12.5916C159.71 9.07271 169.014 5.99987 178.517 3.81915C178.766 3.76959 179.015 3.72003 179.313 3.72003C180.806 3.72003 182 4.90951 182 6.39637V50.4569C182 51.5968 181.303 52.5881 180.209 52.9846L177.025 54.174C166.875 57.7921 158.417 60.8153 151.998 71.5703C153.74 73.2554 154.884 75.0396 155.431 77.0221C157.073 83.3165 152.496 88.4709 146.575 89.6108C145.083 89.9082 143.49 89.9577 141.998 89.8091C142.595 95.6078 138.416 99.9197 132.893 100.96C131.549 101.208 130.107 101.307 128.763 101.208C129.709 107.205 125.38 111.815 119.708 112.855C116.524 113.45 113.34 113.153 110.553 111.468L108.165 110.08ZM5.42318 47.5823C10.4981 47.5328 14.9262 48.1275 18.7572 49.3665C23.9814 51.0021 28.0612 53.6289 31.2952 56.9C33.2854 58.932 34.977 60.964 36.8677 63.2439L37.7135 64.3342C38.3106 63.9377 38.8578 63.5412 39.4549 63.1447C42.2411 61.3605 45.2263 61.0632 47.8633 61.757C49.5549 62.2031 51.0476 63.0952 52.2914 64.2847C53.4855 65.4742 54.4308 66.961 54.8786 68.6461C55.5254 70.9755 55.2767 73.6023 53.784 76.13L54.2318 75.8326C56.7693 73.8997 59.6052 73.4536 62.1925 73.9988C63.7846 74.2962 65.327 75.0892 66.5708 76.13C67.8146 77.2203 68.76 78.6081 69.3073 80.194C70.0038 82.2261 70.0038 84.5555 68.959 86.8849C69.8546 86.6371 70.7999 86.538 71.6955 86.538C73.2876 86.5875 74.8797 87.0336 76.2728 87.8266C77.6659 88.57 78.86 89.6604 79.7058 90.9986C80.7009 92.535 81.1487 94.3192 80.9497 96.2521C81.9945 95.7565 83.0891 95.5087 84.2335 95.5087C85.0295 95.4591 85.7758 95.5582 86.5221 95.7565L85.0793 94.6166L82.7408 92.8323C81.5965 91.9402 81.3477 90.2551 82.2931 89.0656C83.1886 87.8761 84.8803 87.6779 86.0246 88.57L88.363 90.3542C96.672 96.7477 98.9109 98.4328 112.892 106.66C114.882 107.8 116.325 108.048 118.713 107.602C121.549 107.057 124.236 104.876 123.39 101.654C122.892 99.8206 121.051 98.0363 119.41 97.0947C108.464 90.6021 105.876 88.6196 98.2143 82.7217C95.9754 80.987 93.3384 78.955 89.3581 75.9317C88.164 75.0396 87.9153 73.3545 88.8108 72.165C89.7064 71.0251 91.398 70.7773 92.5921 71.6694C96.0252 74.2466 99.0104 76.576 101.498 78.4594C109.857 84.8529 112.046 86.5875 126.126 94.8148C128.067 95.9547 129.559 96.153 131.898 95.7069C134.684 95.1617 137.371 92.981 136.525 89.7595C136.027 87.8266 134.435 86.4884 132.793 85.5467C122.146 79.2028 119.509 77.1708 111.897 71.372C108.862 69.0426 105.08 66.1185 100.005 62.3022C98.8114 61.4101 98.5626 59.725 99.4582 58.5355C100.354 57.3956 102.045 57.1478 103.239 58.0399C108.663 62.104 112.295 64.8794 115.18 67.1097C122.892 73.0076 125.231 75.1387 136.774 81.6313C140.157 83.5643 141.699 85.1007 145.58 84.3077C148.366 83.8121 151.053 81.6313 150.207 78.3603C149.909 77.1708 148.963 75.9813 147.471 74.6927C143.54 71.3225 139.759 68.3983 135.629 65.2759C132.943 63.1943 130.107 61.0632 126.922 58.5355C124.037 56.2061 121.449 54.2732 118.962 52.3898C111.847 46.9876 105.23 41.9818 98.8114 34.8449C96.7217 32.5651 94.433 31.2269 92.2936 30.7313C89.1591 29.9878 85.4276 30.9295 84.6315 34.3988C81.7955 46.0459 74.9792 54.0254 62.491 54.967C58.9584 55.2644 55.3762 54.2732 53.386 51.1508C51.5451 48.2266 51.7939 44.6086 53.2865 41.5853C54.4308 39.3055 55.2766 37.2734 55.8239 35.2414C57.1673 30.6817 56.819 26.1716 58.3614 21.711C59.257 19.1338 60.6998 16.8539 62.9388 15.268C63.7348 14.6732 64.5309 14.128 65.327 13.6324C61.5954 13.6324 57.8141 13.6324 53.9333 13.5333C46.8185 13.2855 39.7534 12.7403 32.9869 11.5012C27.912 10.6091 22.8868 9.8657 17.8119 9.37008C13.6823 8.97359 9.50301 8.67622 5.42318 8.52753V47.5823ZM93.0399 100.564C93.7365 102.001 93.9852 103.637 93.5872 105.372L93.4379 105.966C93.1394 107.106 92.8907 108.246 92.5921 109.386C92.8907 109.535 93.2389 109.733 93.637 109.981C95.1793 110.873 97.1197 111.17 98.9109 110.922H99.0104C99.906 110.774 100.752 110.526 101.448 110.129C102.045 109.783 102.543 109.336 102.841 108.791C103.09 108.395 103.239 107.85 103.289 107.205C98.7119 104.43 95.8261 102.546 93.0399 100.564ZM35.3751 72.8589C33.3352 74.6431 31.5938 76.5265 30.0514 78.5585C29.1061 79.7976 29.2056 81.5322 29.9021 83.1182C30.3002 84.1094 30.9967 85.0511 31.743 85.7945C32.4893 86.538 33.3849 87.1327 34.2805 87.4796C35.4746 87.9257 36.7184 87.8266 37.813 86.984C40.0519 85.1502 42.0421 83.0686 43.883 80.8383C45.7239 78.5585 47.4155 76.0804 48.9579 73.7014C49.8037 72.4128 49.953 71.1242 49.6545 70.0834C49.4554 69.34 49.0574 68.6461 48.5101 68.1009C47.9131 67.5558 47.2165 67.1593 46.4204 66.9115C45.2263 66.6141 43.7835 66.7628 42.3904 67.6549C39.7534 69.3895 37.415 71.0747 35.3751 72.8589ZM51.4954 85.0015C49.9032 86.538 48.5599 88.1735 47.2663 90.2056C46.52 91.395 46.6692 92.9315 47.4155 94.3192C47.8633 95.2113 48.5101 96.0539 49.3062 96.7477C50.0525 97.392 50.8485 97.8876 51.6944 98.1355C52.789 98.4328 53.9333 98.3337 54.8786 97.4911C56.819 95.6574 58.4112 93.8236 59.7545 91.8411C61.1974 89.7595 62.4412 87.5788 63.7846 85.2494C64.4811 84.0599 64.5309 82.8704 64.1826 81.9287C63.9836 81.2349 63.5856 80.6401 63.0383 80.194C62.491 79.748 61.7944 79.4011 61.0481 79.2524C59.9535 79.0046 58.6599 79.2524 57.4161 80.1445C55.0279 81.8792 53.1372 83.4156 51.4954 85.0015ZM64.9787 97.9868C63.9338 99.4736 63.1378 101.01 62.4412 102.893C62.0929 103.736 62.5407 104.826 63.3865 105.818C63.9836 106.561 64.7299 107.205 65.5757 107.651C66.3718 108.097 67.2674 108.444 68.0634 108.494C68.959 108.593 69.8048 108.395 70.3023 107.75C71.5959 105.966 72.5413 104.182 73.2876 102.348C74.1334 100.415 74.7802 98.4328 75.4768 96.3017C75.7255 95.36 75.5763 94.567 75.1782 93.8731C74.83 93.328 74.2827 92.8323 73.6359 92.4854C72.9891 92.1385 72.2925 91.9402 71.5959 91.8907C70.6009 91.8907 69.6555 92.188 68.959 92.981C67.3171 94.8148 66.0235 96.4008 64.9787 97.9868ZM79.7058 106.016C78.9595 107.404 78.4122 108.841 77.9147 110.427C77.7654 110.972 78.2132 111.715 78.9595 112.459C79.5566 113.054 80.3526 113.599 81.1487 113.995C81.9448 114.342 82.7408 114.59 83.4374 114.64C84.0842 114.64 84.6315 114.54 84.8305 114.144C86.6216 111.269 87.368 108.048 88.164 104.727L88.3133 104.132C88.4625 103.587 88.3133 103.092 88.0148 102.596L87.9153 102.497C87.5172 102.001 86.9699 101.605 86.3231 101.307C85.7261 101.01 85.0295 100.861 84.3827 100.861C83.6862 100.861 83.0394 101.109 82.6413 101.605C81.3975 103.24 80.4522 104.628 79.7058 106.016Z" fill="#0F75BD"/>
<path d="M8.35867 6.29725C8.35867 5.80163 8.7567 5.40513 9.25424 5.40513C9.75178 5.40513 10.1498 5.80163 10.1498 6.29725V48.2266C10.1498 48.7222 9.75178 49.1187 9.25424 49.1187C8.7567 49.1187 8.35867 48.7222 8.35867 48.2266V6.29725ZM80.6512 107.75C80.3526 107.304 80.5019 106.759 80.9497 106.511C81.3477 106.264 81.895 106.412 82.1438 106.809C82.5418 107.453 82.9896 107.85 83.4374 108.048C83.9349 108.296 84.4822 108.345 85.0295 108.345C85.5271 108.296 85.9748 108.692 85.9748 109.138C86.0246 109.634 85.6266 110.08 85.1788 110.08C84.2832 110.179 83.4374 110.03 82.6911 109.683C81.895 109.336 81.1985 108.692 80.6512 107.75ZM65.924 99.325C65.6752 98.8789 65.8245 98.3337 66.2225 98.0859C66.6703 97.8381 67.2176 97.9868 67.4664 98.4328C67.9142 99.2754 68.4614 99.771 69.1083 100.068C69.7053 100.366 70.4019 100.465 71.1482 100.465C71.6457 100.465 72.0935 100.812 72.0935 101.307C72.0935 101.803 71.7452 102.2 71.2477 102.249C70.2028 102.299 69.2078 102.15 68.3122 101.654C67.3669 101.208 66.5708 100.465 65.924 99.325ZM53.784 86.2406C53.6348 85.745 53.8835 85.2494 54.3313 85.1007C54.7791 84.9024 55.3264 85.1502 55.4757 85.5963C55.7742 86.4884 56.2717 87.1327 56.819 87.5292C57.3663 87.9257 58.0131 88.124 58.7594 88.2231C59.257 88.2726 59.6052 88.7187 59.5555 89.2143C59.5057 89.7099 59.0579 90.0569 58.5604 90.0073C57.5156 89.8586 56.5702 89.5613 55.7244 88.9665C54.9284 88.3718 54.2318 87.4797 53.784 86.2406ZM38.8081 73.9988C38.6588 73.5032 38.9076 73.0076 39.3554 72.8589C39.8032 72.6606 40.3505 72.9084 40.4997 73.3545C40.848 74.2466 41.2958 74.8909 41.8431 75.2874C42.3904 75.6839 43.0869 75.8822 43.8332 75.9813C44.281 76.0309 44.6293 76.4769 44.5796 76.9725C44.5298 77.4681 44.082 77.8151 43.5845 77.7655C42.5396 77.6168 41.5943 77.3195 40.7982 76.7247C39.9524 76.13 39.2559 75.2379 38.8081 73.9988ZM68.1132 36.7778C68.6107 36.9761 68.8097 37.5212 68.6107 37.9673C68.4117 38.4134 67.8644 38.6116 67.4166 38.4134C66.521 38.0169 65.7747 37.9177 65.1279 38.0664C64.4314 38.1656 63.8343 38.5125 63.2373 39.0081C62.8393 39.3055 62.292 39.2559 61.9934 38.8594C61.6452 38.4629 61.7447 37.9177 62.0929 37.6204C62.889 36.9761 63.7846 36.4804 64.7797 36.2822C65.8245 36.1335 66.9191 36.2326 68.1132 36.7778ZM142.595 41.9818C143.043 41.6845 143.59 41.7836 143.839 42.1801C144.137 42.6261 144.038 43.1713 143.64 43.4191C138.913 46.6902 133.341 48.6231 127.768 48.6727C122.693 48.7222 117.668 47.1363 113.34 43.5678C112.941 43.2209 112.892 42.6757 113.19 42.2792C113.539 41.9323 114.086 41.8331 114.484 42.1801C118.464 45.5007 123.091 46.938 127.768 46.8884C132.943 46.8884 138.167 45.0547 142.595 41.9818ZM105.578 91.6429C105.876 91.1968 106.424 91.0977 106.822 91.3455C107.27 91.5933 107.369 92.188 107.12 92.5845L103.787 97.739C103.488 98.185 102.941 98.2842 102.543 98.0363C102.095 97.739 101.996 97.1938 102.244 96.7973L105.578 91.6429ZM118.663 79.6489C118.912 79.2524 119.459 79.1037 119.907 79.4011C120.305 79.6489 120.405 80.1941 120.156 80.6401L116.524 86.2902C116.225 86.6867 115.678 86.7858 115.28 86.538C114.882 86.2902 114.733 85.6954 115.031 85.2989L118.663 79.6489ZM127.47 63.343C127.718 62.9465 128.266 62.7978 128.664 63.0952C129.112 63.343 129.211 63.8882 128.962 64.2847L125.33 69.9347C125.032 70.3808 124.484 70.4799 124.086 70.2321C123.639 69.9347 123.539 69.3896 123.788 68.9931L127.47 63.343ZM171.701 9.32052C171.701 8.8249 172.099 8.42841 172.596 8.42841C173.094 8.42841 173.492 8.8249 173.492 9.32052V52.7368C173.492 53.2324 173.094 53.6289 172.596 53.6289C172.099 53.6289 171.701 53.2324 171.701 52.7368V9.32052Z" fill="#0F75BD"/>
</svg>
