<svg width="55" height="19" viewBox="0 0 55 19" fill="none" xmlns="http://www.w3.org/2000/svg">
<path d="M23.8333 18.7311H19.3779L22.1647 0.697632H26.6198L23.8333 18.7311Z" fill="#00579F"/>
<path d="M39.9832 1.13861C39.1044 0.773725 37.7105 0.37085 35.987 0.37085C31.5872 0.37085 28.4888 2.82635 28.4698 6.33698C28.4333 8.92711 30.6881 10.3657 32.3746 11.2294C34.0984 12.1119 34.6843 12.6879 34.6843 13.4745C34.6668 14.6826 33.2914 15.2395 32.0087 15.2395C30.2299 15.2395 29.2767 14.9524 27.8283 14.2803L27.2416 13.9921L26.6182 18.0403C27.6631 18.5385 29.5884 18.9806 31.5872 19C36.2621 19 39.3056 16.5825 39.3417 12.8414C39.3595 10.7885 38.1688 9.2155 35.6018 7.93012C34.0435 7.10499 33.0892 6.54861 33.0892 5.70436C33.1075 4.93686 33.8964 4.15074 35.6554 4.15074C37.1039 4.11224 38.1681 4.47661 38.9743 4.84124L39.3773 5.03273L39.9832 1.13861Z" fill="#00579F"/>
<path d="M45.906 12.3425C46.2729 11.3065 47.6848 7.29688 47.6848 7.29688C47.6662 7.33538 48.0509 6.24176 48.2709 5.57038L48.5823 7.12426C48.5823 7.12426 49.426 11.4409 49.6093 12.3425C48.9129 12.3425 46.786 12.3425 45.906 12.3425ZM51.4056 0.697632H47.9593C46.8966 0.697632 46.0892 1.0235 45.6306 2.19388L39.0127 18.7309H43.6876C43.6876 18.7309 44.4573 16.5051 44.6227 16.0258C45.1356 16.0258 49.6833 16.0258 50.3431 16.0258C50.471 16.6589 50.8747 18.7309 50.8747 18.7309H55L51.4056 0.697632Z" fill="#00579F"/>
<path d="M15.6553 0.697632L11.292 12.9948L10.8152 10.5008C10.0085 7.62301 7.47856 4.49639 4.65527 2.94175L8.65192 18.712H13.3634L20.3665 0.697632H15.6553Z" fill="#00579F"/>
<path d="M7.24166 0.697632H0.0733348L0 1.062C5.59175 2.55851 9.29505 6.16577 10.8166 10.5015L9.25826 2.21351C9.00171 1.06175 8.21329 0.735625 7.24166 0.697632Z" fill="#FAA61A"/>
</svg>
