<svg width="56" height="55" viewBox="0 0 56 55" fill="none" xmlns="http://www.w3.org/2000/svg">
<path fill-rule="evenodd" clip-rule="evenodd" d="M27.625 0C42.6845 0 55.125 12.2222 55.125 27.5C55.125 42.5595 42.6845 55 27.625 55C12.3472 55 0.125 42.5595 0.125 27.5C0.125 12.2222 12.3472 0 27.625 0Z" fill="#DFEBF7"/>
<path fill-rule="evenodd" clip-rule="evenodd" d="M20.3006 12.375H34.9494C39.5312 12.375 42.75 15.6273 42.75 20.2569V34.7265C42.75 39.522 39.7447 42.625 34.9494 42.625H20.3006C15.5053 42.625 12.5 39.605 12.5 34.7265V20.2569C12.5 15.7435 15.8502 12.375 20.3006 12.375ZM27.625 20.2901C29.5957 20.2901 31.3693 21.1032 32.6667 22.3975C33.9476 23.7084 34.7523 25.5005 34.7523 27.4917C34.7523 29.4829 33.9476 31.2916 32.6667 32.5859C31.3693 33.8968 29.5957 34.7099 27.625 34.7099C25.6543 34.7099 23.8643 33.8968 22.5833 32.5859C21.286 31.2916 20.4977 29.4829 20.4977 27.4917C20.4977 25.5005 21.286 23.7084 22.5833 22.3975C23.8643 21.1032 25.6543 20.2901 27.625 20.2901ZM35.3764 17.4526C36.4274 17.4526 37.2649 18.2989 37.2649 19.3609C37.2649 20.4063 36.4274 21.2691 35.3764 21.2691C34.3417 21.2691 33.4878 20.4063 33.4878 19.3609C33.4878 18.2989 34.3417 17.4526 35.3764 17.4526Z" fill="#0F75BD"/>
</svg>
