<?xml version="1.0" encoding="UTF-8"?>
<svg xmlns="http://www.w3.org/2000/svg" xmlns:xlink="http://www.w3.org/1999/xlink" viewBox="0 0 400 400" width="400px" height="400px">
<g id="surface13015878">
<path style=" stroke:none;fill-rule:nonzero;fill:rgb(20.392157%,59.607846%,85.882354%);fill-opacity:1;" d="M 119.84375 69.226562 C 91.171875 69.226562 67.84375 92.554688 67.84375 121.226562 L 67.84375 277.226562 C 67.84375 305.898438 91.171875 329.226562 119.84375 329.226562 L 275.84375 329.226562 C 304.515625 329.226562 327.84375 305.902344 327.84375 277.226562 L 327.84375 177.226562 C 327.84375 175.019531 326.050781 173.226562 323.84375 173.226562 C 321.636719 173.226562 319.84375 175.019531 319.84375 177.226562 L 319.84375 277.226562 C 319.84375 301.488281 300.105469 321.226562 275.84375 321.226562 L 119.84375 321.226562 C 95.582031 321.226562 75.84375 301.488281 75.84375 277.226562 L 75.84375 121.226562 C 75.84375 96.964844 95.582031 77.226562 119.84375 77.226562 L 275.84375 77.226562 C 300.105469 77.226562 319.84375 96.964844 319.84375 121.226562 C 319.84375 123.433594 321.636719 125.226562 323.84375 125.226562 C 326.050781 125.226562 327.84375 123.433594 327.84375 121.226562 C 327.84375 92.554688 304.515625 69.226562 275.84375 69.226562 Z M 131.195312 89.226562 C 107.292969 89.226562 87.84375 108.675781 87.84375 132.578125 L 87.84375 265.882812 C 87.84375 289.785156 107.292969 309.226562 131.195312 309.226562 L 264.492188 309.226562 C 288.390625 309.226562 307.84375 289.785156 307.84375 265.882812 L 307.84375 251.226562 C 307.84375 250.121094 306.949219 249.226562 305.84375 249.226562 C 304.738281 249.226562 303.84375 250.121094 303.84375 251.226562 L 303.84375 265.882812 C 303.84375 287.578125 286.1875 305.226562 264.492188 305.226562 L 131.195312 305.226562 C 109.5 305.226562 91.84375 287.578125 91.84375 265.882812 L 91.84375 132.578125 C 91.84375 110.882812 109.5 93.226562 131.195312 93.226562 L 265.84375 93.226562 C 266.949219 93.226562 267.84375 92.332031 267.84375 91.226562 C 267.84375 90.121094 266.949219 89.226562 265.84375 89.226562 Z M 337.007812 121.648438 C 334.476562 121.648438 332.097656 122.640625 330.320312 124.445312 L 197.820312 255.804688 L 159.007812 214.578125 C 157.167969 212.710938 154.789062 211.710938 152.257812 211.710938 C 149.726562 211.710938 147.347656 212.703125 145.570312 214.507812 C 141.925781 218.203125 141.925781 224.210938 145.570312 227.90625 L 191.601562 274.59375 C 193.320312 276.339844 195.65625 277.296875 198.171875 277.296875 C 198.417969 277.296875 198.667969 277.292969 198.914062 277.273438 C 199.214844 277.335938 199.578125 277.390625 200 277.390625 C 200.652344 277.390625 201.175781 277.257812 201.46875 277.179688 C 201.972656 277.117188 202.519531 276.988281 203.03125 276.820312 C 203.519531 276.644531 203.847656 276.515625 204.179688 276.34375 C 205.113281 275.90625 205.96875 275.3125 206.679688 274.585938 L 343.664062 137.859375 C 347.328125 134.144531 347.328125 128.128906 343.6875 124.4375 C 341.910156 122.640625 339.539062 121.648438 337.007812 121.648438 Z M 337.007812 125.648438 C 338.398438 125.648438 339.789062 126.183594 340.84375 127.25 C 342.953125 129.390625 342.953125 132.890625 340.84375 135.03125 L 203.828125 271.789062 C 203.394531 272.230469 202.898438 272.53125 202.375 272.773438 C 202.183594 272.871094 201.988281 272.953125 201.789062 273.023438 C 201.449219 273.136719 201.101562 273.199219 200.75 273.242188 C 200.492188 273.277344 200.265625 273.398438 200 273.398438 C 199.714844 273.398438 199.476562 273.277344 199.203125 273.234375 C 199.183594 273.230469 199.160156 273.230469 199.140625 273.226562 C 198.820312 273.277344 198.496094 273.304688 198.171875 273.304688 C 196.816406 273.304688 195.472656 272.832031 194.445312 271.789062 L 148.414062 225.101562 C 146.304688 222.960938 146.304688 219.460938 148.414062 217.320312 C 149.46875 216.253906 150.859375 215.71875 152.25 215.71875 C 153.640625 215.71875 155.03125 216.253906 156.085938 217.320312 L 197.726562 261.539062 L 333.171875 127.25 C 334.226562 126.179688 335.617188 125.648438 337.007812 125.648438 Z M 305.84375 209.226562 C 304.738281 209.226562 303.84375 210.121094 303.84375 211.226562 L 303.84375 219.226562 C 303.84375 220.332031 304.738281 221.226562 305.84375 221.226562 C 306.949219 221.226562 307.84375 220.332031 307.84375 219.226562 L 307.84375 211.226562 C 307.84375 210.121094 306.949219 209.226562 305.84375 209.226562 Z M 305.84375 225.226562 C 304.738281 225.226562 303.84375 226.121094 303.84375 227.226562 L 303.84375 243.226562 C 303.84375 244.332031 304.738281 245.226562 305.84375 245.226562 C 306.949219 245.226562 307.84375 244.332031 307.84375 243.226562 L 307.84375 227.226562 C 307.84375 226.121094 306.949219 225.226562 305.84375 225.226562 Z M 305.84375 225.226562 "/>
</g>
</svg>
