<svg width="141" height="120" viewBox="0 0 141 120" fill="none" xmlns="http://www.w3.org/2000/svg">
<path d="M9.08603 79.2833L9.1996 117.615H7.60955L7.49597 79.2833H9.08603ZM85.8629 58.6126C85.6926 58.215 85.8062 57.7607 86.2037 57.5336C86.5444 57.3632 87.0555 57.4768 87.2826 57.8743C87.8505 58.8965 88.532 59.8051 89.3838 60.6569C90.2356 61.4519 91.201 62.1334 92.2799 62.7581C92.6775 62.9284 92.8478 63.4395 92.6207 63.7802C92.4503 64.1777 91.9392 64.3481 91.5985 64.121C90.2924 63.4963 89.2134 62.7013 88.248 61.7927C87.3394 60.8273 86.5444 59.8051 85.8629 58.6126Z" fill="#0F75BD"/>
<path d="M61.5578 73.8316C60.5356 74.6267 59.0592 74.4563 58.2641 73.4341C57.4123 72.4119 57.5827 70.8787 58.6616 70.0837C59.2295 69.6294 59.8542 69.1183 60.4221 68.664C59.8542 68.5504 59.2863 68.4368 58.7184 68.2665C56.6173 67.6418 54.4594 66.7332 52.0175 65.2567C50.9385 64.5752 50.541 63.1556 51.2225 62.0198C51.9039 60.8841 53.3804 60.5433 54.4594 61.168C55.4815 61.7927 56.3901 62.247 57.2987 62.6445C61.4442 57.6472 63.8293 52.3659 65.4762 48.6747C66.5551 46.2328 67.407 44.4156 68.4291 43.3935L68.5995 43.2231C69.9056 42.0873 74.9597 38.3961 79.4459 35.6136C82.5125 33.7963 85.4654 32.3199 87.2258 32.1495C88.9295 32.0359 91.3146 31.9224 93.6996 31.8088C98.413 31.5816 103.467 31.3545 105.852 30.673C107.669 30.2187 109.373 28.6855 110.225 26.9818C110.566 26.414 110.736 25.7893 110.679 25.2782C110.679 24.8807 110.566 24.54 110.282 24.256C109.43 23.4042 107.613 22.7795 104.432 22.7228L97.6748 22.6092C87.6801 22.4388 82.3421 22.382 79.9002 23.2906C76.5498 24.5967 71.5525 26.6411 66.5551 28.8558C62.3528 30.673 58.2074 32.6038 55.1408 34.1939C52.9261 35.3296 50.8817 36.5789 49.0645 38.0554C47.2473 39.5319 45.6573 41.1787 44.2944 43.1663L22.3175 74.4563C20.6139 76.8982 18.1721 78.6018 15.3895 79.7943C12.3229 81.1572 8.85887 81.7819 5.67877 81.8387H4.77016V115.23H44.6351C49.6892 115.23 54.1186 110.119 58.1506 105.406C59.3431 104.043 60.4789 102.68 61.6146 101.487C62.7504 100.295 63.8861 99.1021 65.0219 97.9096C65.1922 97.6257 65.4762 97.3417 65.7601 97.1146C65.8169 97.0578 65.8737 97.0578 65.9305 97.001C67.2366 95.6949 68.5427 94.332 69.8488 93.0259C78.8213 83.8263 87.9073 74.5131 95.5168 64.4049C97.9019 61.2248 98.5266 58.3854 98.0723 56.2843C97.9019 55.3757 97.4476 54.6374 96.8797 54.0695C96.3119 53.5017 95.5736 53.1041 94.7218 52.9338C92.791 52.5363 90.2924 53.1042 87.6801 55.1485L87.5098 55.2621C83.4211 58.499 78.9348 61.5655 74.4486 64.632C69.9624 67.6986 65.533 70.7083 61.5578 73.8316ZM65.8737 64.7456C67.8045 63.3827 69.792 62.0198 71.7228 60.7137C73.2561 59.6915 74.7326 58.6693 76.209 57.6472C75.0165 57.0225 73.8807 56.625 72.6882 56.2843C71.0981 55.83 69.5081 55.546 67.6341 55.3189C66.2712 58.0447 64.5108 61.1112 62.1825 64.1777C63.3182 64.4049 64.5108 64.5753 65.8737 64.7456ZM80.5249 54.5806C81.9446 53.5584 83.2507 52.5363 84.5568 51.5141L84.7272 51.4005C88.5887 48.4476 92.5071 47.5957 95.6872 48.2772C97.4476 48.6747 99.0377 49.4697 100.23 50.7191C101.423 51.9116 102.331 53.4449 102.729 55.2621C103.467 58.6125 102.615 62.8148 99.3216 67.2443C97.8451 69.2318 96.3119 71.1626 94.7218 73.0934C94.7218 73.2638 94.7218 73.4341 94.665 73.6045C94.0971 77.1253 93.7564 80.419 93.5861 83.7127C93.4157 87.1199 93.4157 90.5272 93.4157 94.2184C93.3589 97.5689 92.3367 99.8972 90.8035 101.317C89.7245 102.282 88.4752 102.793 87.1123 102.907C85.9197 103.021 84.6136 102.793 83.4211 102.282C82.0014 101.658 80.6385 100.635 79.5595 99.2157L76.4362 101.714L75.9251 102.055C74.1647 103.304 72.1203 103.702 70.2463 103.418C69.2242 103.304 68.202 102.964 67.2934 102.396C66.5551 103.191 65.8169 103.986 65.0787 104.724C63.9997 105.86 62.9207 107.166 61.785 108.472C57.0148 113.981 51.9039 120 44.6351 120H2.38508C1.07897 120 0 118.921 0 117.615V79.4536C0 78.1475 1.07897 77.0685 2.38508 77.0685H5.62198C8.17742 77.0117 11.0168 76.5007 13.5155 75.4217C15.503 74.5699 17.2634 73.3773 18.3992 71.7305L40.376 40.4405C42.0229 38.1122 43.8969 36.1246 46.0548 34.3642C48.0991 32.6606 50.4274 31.2409 52.9829 29.9348C56.2766 28.2312 60.4789 26.3004 64.6244 24.4832C69.6785 22.2685 74.7893 20.1673 78.1966 18.8612C81.4903 17.6119 87.1123 17.6687 97.7316 17.8958L104.489 18.0094C109.146 18.0662 112.042 19.2587 113.689 20.9623C114.825 22.1549 115.393 23.5746 115.449 25.1078C115.506 26.4707 115.165 27.8336 114.484 29.1398C113.064 31.9224 110.168 34.421 107.102 35.2728C104.149 36.0679 98.8673 36.3518 93.9268 36.5789C91.7121 36.6925 89.5541 36.7493 87.6234 36.9197C86.658 37.0332 84.4433 38.169 81.9446 39.7023C77.6855 42.2577 72.9721 45.7218 71.7796 46.8007L71.7228 46.8575C71.3253 47.255 70.7006 48.6747 69.8488 50.6055L69.7352 50.7759C71.2685 51.003 72.6314 51.2869 73.9943 51.6845C76.0955 52.3091 78.1966 53.1609 80.5249 54.5806ZM89.0998 79.624C86.4308 82.5769 83.705 85.5299 80.9224 88.4261C81.036 89.2779 81.2631 90.2433 81.4903 91.1519V91.2087C81.7742 92.4012 82.0582 93.5937 82.3989 94.6159C82.9668 96.206 84.0457 97.3985 85.2951 97.9096C85.7494 98.08 86.2605 98.1936 86.7148 98.1368C86.9987 98.1368 87.3394 98.0232 87.5666 97.796H87.6234C88.1912 97.2282 88.6455 96.0924 88.6455 94.1616C88.6455 90.3568 88.6455 86.8928 88.8159 83.4855C88.9295 82.1794 88.9863 80.8733 89.0998 79.624ZM76.8905 92.5716C75.6979 93.8209 74.4486 95.0702 73.2561 96.3195L70.871 98.7046C71.666 98.8182 72.5178 98.6479 73.2561 98.1368C74.619 97.1714 76.0955 95.922 77.5151 94.7863C77.288 94.048 77.0608 93.3098 76.8905 92.5716ZM89.3838 12.8417C89.1566 14.1478 87.9073 14.9996 86.6012 14.7725C85.3518 14.5453 84.4432 13.296 84.7272 11.9899C85.3518 8.18511 87.5098 5.17537 90.4059 3.07423C92.1096 1.8249 94.0972 0.916295 96.2551 0.405207C98.2994 -0.0490947 100.514 -0.105882 102.672 0.234844C106.306 0.916295 109.771 2.84708 112.269 6.31112C112.837 7.04936 112.326 7.44688 112.667 7.39009C112.951 7.39009 112.61 6.99257 113.178 6.31112V6.25434C115.506 3.13101 118.573 1.25702 121.81 0.461994C124.706 -0.276245 127.772 -0.105882 130.555 0.80272C133.337 1.71132 135.893 3.35816 137.767 5.62967C139.754 8.01475 140.947 11.0813 140.947 14.6021C140.947 19.713 138.959 24.7103 135.722 29.6508C132.599 34.421 128.34 39.1344 123.684 43.8478C118.913 48.6179 116.074 51.003 112.724 51.003C109.373 51.003 106.534 48.5611 101.763 43.8478C100.855 42.9392 100.798 41.4059 101.763 40.4973C102.672 39.5887 104.205 39.5887 105.114 40.4973C108.976 44.3021 111.077 46.2328 112.724 46.2328C114.37 46.2328 116.471 44.3589 120.276 40.4973C124.762 36.0111 128.794 31.5248 131.691 27.0386C134.473 22.8363 136.177 18.6908 136.177 14.6021C136.177 12.217 135.382 10.2295 134.076 8.63942C132.826 7.10615 131.066 5.9704 129.078 5.34573C127.148 4.72107 124.99 4.60749 122.945 5.11858C120.731 5.62967 118.629 6.93579 116.983 9.15051C115.563 11.0245 114.541 12.0467 112.951 12.1603H112.837C111.19 12.217 109.998 11.2516 108.408 9.09372C106.704 6.70864 104.319 5.40252 101.877 4.94822C100.344 4.66428 98.8105 4.72107 97.2773 5.06179C95.8008 5.40252 94.3811 6.02718 93.1885 6.93579C91.2578 8.35548 89.8381 10.343 89.3838 12.8417Z" fill="#0F75BD"/>
</svg>
