<svg width="17" height="13" viewBox="0 0 17 13" fill="none" xmlns="http://www.w3.org/2000/svg">
<path d="M16.5993 10.6481C17.1336 11.1995 17.1336 12.061 16.5993 12.6123C16.0293 13.1292 15.1388 13.1292 14.5689 12.6123L9.26139 7.4778C8.72708 6.92644 8.72708 6.06494 9.26139 5.54805L14.5689 0.413519C15.1388 -0.13784 16.0293 -0.13784 16.5993 0.413519C17.1336 0.930417 17.1336 1.82638 16.5993 2.34327L12.2892 6.51292L16.5993 10.6481Z" fill="#0F75BD"/>
<path d="M7.7297 10.6481C8.29963 11.1995 8.29963 12.061 7.7297 12.6123C7.15977 13.1292 6.26925 13.1292 5.73494 12.6123L0.427449 7.4778C-0.142483 6.92644 -0.142483 6.06494 0.427449 5.54805L5.73494 0.413519C6.26925 -0.13784 7.15977 -0.13784 7.7297 0.413519C8.29963 0.930417 8.29963 1.82638 7.7297 2.34327L3.41959 6.51292L7.7297 10.6481Z" fill="#0F75BD"/>
</svg>
