<svg width="183" height="120" viewBox="0 0 183 120" fill="none" xmlns="http://www.w3.org/2000/svg">
<path d="M74.0474 111.41C74.338 111.087 74.8547 111.055 75.1776 111.313C75.5328 111.604 75.5651 112.121 75.2745 112.443C73.3692 114.704 69.5587 116.609 64.5856 117.966C59.8062 119.225 53.8967 120 47.535 120C41.1733 120 35.2637 119.225 30.4844 117.966C25.5113 116.609 21.7008 114.704 19.7955 112.443C19.5048 112.121 19.5371 111.604 19.8924 111.313C20.2153 111.055 20.732 111.087 20.9903 111.41C22.7018 113.412 26.2217 115.156 30.9042 116.415C35.5544 117.643 41.3025 118.385 47.535 118.385C53.7675 118.385 59.5156 117.643 64.1658 116.415C68.8482 115.156 72.3681 113.412 74.0474 111.41ZM147.094 0.839612H160.527C160.947 0.839612 161.302 1.19483 161.302 1.64693V15.0807C161.302 15.5005 160.947 15.8558 160.527 15.8558H147.094C146.642 15.8558 146.286 15.5005 146.286 15.0807V1.64693C146.286 1.19483 146.642 0.839612 147.094 0.839612ZM147.094 19.8278H160.527C160.947 19.8278 161.302 20.183 161.302 20.6351V34.0366C161.302 34.4887 160.947 34.8439 160.527 34.8439H147.094C146.642 34.8439 146.286 34.4887 146.286 34.0366V20.6351C146.286 20.183 146.642 19.8278 147.094 19.8278ZM159.72 21.4101H147.869V33.2616H159.72V21.4101ZM178.708 33.2616V32.099C178.708 31.6469 179.064 31.2917 179.483 31.2917C179.935 31.2917 180.291 31.6469 180.291 32.099V34.0366C180.291 34.4887 179.935 34.8439 179.483 34.8439H166.082C165.63 34.8439 165.275 34.4887 165.275 34.0366C165.275 33.6168 165.63 33.2616 166.082 33.2616H178.708ZM173.574 31.5178C173.574 31.9699 173.219 32.3251 172.799 32.3251C172.347 32.3251 171.991 31.9699 171.991 31.5178V30.3875H171.572C171.119 30.3875 170.764 30.0323 170.764 29.5802C170.764 29.1281 171.119 28.7729 171.572 28.7729H179.483C179.935 28.7729 180.291 29.1281 180.291 29.5802C180.291 30.0323 179.935 30.3875 179.483 30.3875H173.574V31.5178ZM179.096 22.5727C179.096 23.0248 178.741 23.38 178.288 23.38C177.836 23.38 177.481 23.0248 177.481 22.5727V21.4101H177.061C176.642 21.4101 176.286 21.0549 176.286 20.6351C176.286 20.183 176.642 19.8278 177.061 19.8278H179.483C179.935 19.8278 180.291 20.183 180.291 20.6351C180.291 21.0549 179.935 21.4101 179.483 21.4101H179.096V22.5727ZM166.082 21.4101C165.63 21.4101 165.275 21.0549 165.275 20.6351C165.275 20.183 165.63 19.8278 166.082 19.8278H173.994C174.446 19.8278 174.801 20.183 174.801 20.6351C174.801 21.0549 174.446 21.4101 173.994 21.4101H166.082ZM168.504 28.7729C168.924 28.7729 169.279 29.1281 169.279 29.5802C169.279 30.0323 168.924 30.3875 168.504 30.3875H166.082C165.63 30.3875 165.275 30.0323 165.275 29.5802C165.275 29.1281 165.63 28.7729 166.082 28.7729H168.504ZM166.857 27.0614C166.857 27.4812 166.502 27.8364 166.082 27.8364C165.63 27.8364 165.275 27.4812 165.275 27.0614V25.0915C165.275 24.6717 165.63 24.3165 166.082 24.3165H168.504C168.924 24.3165 169.279 24.6717 169.279 25.0915C169.279 25.5436 168.924 25.8988 168.504 25.8988H166.857V27.0614ZM179.483 24.3165C179.935 24.3165 180.291 24.6717 180.291 25.0915C180.291 25.5436 179.935 25.8988 179.483 25.8988H177.061C176.642 25.8988 176.286 25.5436 176.286 25.0915C176.286 24.6717 176.642 24.3165 177.061 24.3165H179.483ZM173.994 24.3165C174.446 24.3165 174.801 24.6717 174.801 25.0915C174.801 25.5436 174.446 25.8988 173.994 25.8988H171.572C171.119 25.8988 170.764 25.5436 170.764 25.0915C170.764 24.6717 171.119 24.3165 171.572 24.3165H173.994ZM166.082 0.839612H179.483C179.935 0.839612 180.291 1.19483 180.291 1.64693V15.0807C180.291 15.5005 179.935 15.8558 179.483 15.8558H166.082C165.63 15.8558 165.275 15.5005 165.275 15.0807V1.64693C165.275 1.19483 165.63 0.839612 166.082 0.839612ZM178.708 2.42196H166.857V14.2734H178.708V2.42196ZM159.72 2.42196H147.869V14.2734H159.72V2.42196ZM174.09 112.831V85.3498H175.705V112.831H174.09ZM133.337 74.887C132.885 74.9193 132.497 74.5963 132.465 74.1765C132.4 73.7244 132.723 73.3369 133.175 73.3046C134.887 73.1432 136.631 72.7879 138.31 72.239C139.892 71.7223 141.41 71.0441 142.863 70.1399C143.251 69.8816 143.735 70.0108 143.961 70.3983C144.187 70.7535 144.09 71.2379 143.703 71.4639C142.121 72.465 140.474 73.2077 138.827 73.7567C137.018 74.338 135.145 74.7255 133.337 74.887ZM131.076 73.8536C130.721 74.0797 130.237 73.9828 129.978 73.6275C129.752 73.2723 129.817 72.7879 130.205 72.5296C131.044 71.9483 131.851 71.3025 132.626 70.6243C133.369 69.9785 134.08 69.268 134.726 68.493C135.016 68.1701 135.533 68.1378 135.856 68.4284C136.179 68.719 136.243 69.2034 135.953 69.5587C135.242 70.366 134.467 71.1087 133.692 71.8192C132.853 72.5619 131.981 73.24 131.076 73.8536ZM119.709 74.564C119.871 74.1765 120.355 73.9505 120.743 74.1119C121.163 74.2734 121.356 74.7578 121.195 75.1453C121.001 75.6943 120.743 76.1787 120.388 76.6631C120.065 77.1475 119.677 77.5996 119.16 78.0517C118.837 78.3423 118.321 78.31 118.03 77.9871C117.74 77.6641 117.772 77.1798 118.095 76.8891C118.515 76.5016 118.837 76.1464 119.096 75.7589C119.354 75.4037 119.548 75.0161 119.709 74.564ZM79.5694 76.3079C79.5694 75.8558 79.9247 75.5005 80.3768 75.5005C80.7966 75.5005 81.1841 75.8558 81.1841 76.3079V101.722C81.1841 103.111 80.6028 104.403 79.6663 105.307C78.7298 106.243 77.4704 106.825 76.0495 106.825H13.8536C12.4327 106.825 11.1733 106.243 10.2368 105.307C9.33262 104.403 8.75135 103.111 8.75135 101.722V13.4015C8.75135 12.0129 9.33262 10.7212 10.2368 9.81701C11.1733 8.88052 12.465 8.29925 13.8536 8.29925H76.0495C77.4704 8.29925 78.7298 8.88052 79.6663 9.78471C80.6028 10.7212 81.1841 12.0129 81.1841 13.4015V39.042C81.1841 39.4941 80.7966 39.8493 80.3768 39.8493C79.9247 39.8493 79.5694 39.4941 79.5694 39.042V13.4015C79.5694 12.4327 79.1819 11.5608 78.5361 10.915C77.9225 10.3014 77.0183 9.88159 76.0495 9.88159H13.8536C12.8848 9.88159 12.0129 10.3014 11.3671 10.915C10.7212 11.5608 10.3337 12.4327 10.3337 13.4015V101.722C10.3337 102.691 10.7212 103.563 11.3671 104.209C12.0129 104.822 12.8848 105.242 13.8536 105.242H76.0495C77.0183 105.242 77.8902 104.822 78.5361 104.209C79.1819 103.563 79.5694 102.691 79.5694 101.722V76.3079ZM84.3488 2.74489C84.3488 2.32508 84.704 1.96986 85.1561 1.96986C85.5759 1.96986 85.9311 2.32508 85.9311 2.74489V38.8805C85.9311 39.3326 85.5759 39.6878 85.1561 39.6878C84.704 39.6878 84.3488 39.3326 84.3488 38.8805V2.74489ZM84.3488 76.4693C84.3488 76.0172 84.704 75.662 85.1561 75.662C85.5759 75.662 85.9311 76.0172 85.9311 76.4693V112.185C85.9311 112.637 85.5759 112.992 85.1561 112.992C84.704 112.992 84.3488 112.637 84.3488 112.185V76.4693ZM93.3585 91.6469C93.7783 91.6469 94.1658 92.0021 94.1658 92.4542C94.1658 92.874 93.7783 93.2293 93.3585 93.2293C91.4855 93.2293 90.0646 92.4542 89.0635 91.1625C88.0624 89.8385 87.5135 87.9656 87.5135 85.9311V76.4693C87.5135 76.0172 87.8687 75.662 88.3208 75.662C88.7729 75.662 89.1281 76.0172 89.1281 76.4693V85.9311C89.1281 87.6426 89.5156 89.1604 90.3229 90.1938C91.0334 91.098 92.0344 91.6469 93.3585 91.6469ZM89.1281 38.8805C89.1281 39.3326 88.7729 39.6878 88.3208 39.6878C87.8687 39.6878 87.5135 39.3326 87.5135 38.8805V29.1927C87.5135 27.1582 88.0624 25.2853 89.0635 23.9612C90.0646 22.6695 91.4855 21.8945 93.3585 21.8945C93.7783 21.8945 94.1658 22.2497 94.1658 22.6695C94.1658 23.1216 93.7783 23.4769 93.3585 23.4769C92.0344 23.4769 91.0334 24.0258 90.3229 24.93C89.5156 25.9634 89.1281 27.4812 89.1281 29.1927V38.8805ZM127.944 55.8342H70.5597V54.2196H127.944V55.8342ZM127.944 46.7277H70.5597V45.1453H127.944V46.7277Z" fill="#0F75BD"/>
<path d="M142.25 78.2777C143.477 78.7944 143.994 80.2153 143.477 81.4101C142.928 82.6049 141.539 83.1539 140.344 82.6372C136.179 80.7643 132.853 78.2777 129.72 75.9203C126.717 73.6598 123.94 71.5608 120.969 70.5274C118.482 69.6555 116.383 69.591 114.962 70.1076C114.446 70.3014 114.058 70.5597 113.832 70.8504C113.671 71.1087 113.574 71.4316 113.606 71.8192C113.703 72.7879 114.413 74.0797 115.899 75.5651L137.923 97.944C138.213 98.1378 138.439 98.3638 138.601 98.6222L141.055 101.109C141.83 101.884 142.67 102.82 143.509 103.789C146.351 106.954 149.386 110.344 152.777 110.344H177.933V87.4166C176.319 87.2228 174.639 86.803 173.089 86.1572C170.99 85.3175 169.117 84.0258 167.793 82.2174L151.712 60.0646C150.678 58.6114 149.16 57.1582 147.61 55.9957C146.125 54.8332 144.672 53.9935 143.671 53.7675C141.313 53.1862 136.857 55.7051 133.175 57.8041C132.271 58.3208 131.432 58.8052 130.657 59.1927V70.6889C131.302 71.141 131.916 71.6254 132.562 72.1098C135.501 74.3057 138.633 76.6631 142.25 78.2777ZM151.389 24.4133H156.2C156.491 24.4133 156.717 24.6394 156.717 24.93V29.7417C156.717 30.0323 156.491 30.2583 156.2 30.2583H151.389C151.098 30.2583 150.872 30.0323 150.872 29.7417V24.93C150.872 24.6394 151.098 24.4133 151.389 24.4133ZM151.389 5.45748H156.2C156.491 5.45748 156.717 5.65124 156.717 5.94187V10.7858C156.717 11.0441 156.491 11.2702 156.2 11.2702H151.389C151.098 11.2702 150.872 11.0441 150.872 10.7858V5.94187C150.872 5.65124 151.098 5.45748 151.389 5.45748ZM170.377 5.45748H175.188C175.479 5.45748 175.705 5.65124 175.705 5.94187V10.7858C175.705 11.0441 175.479 11.2702 175.188 11.2702H170.377C170.086 11.2702 169.86 11.0441 169.86 10.7858V5.94187C169.86 5.65124 170.086 5.45748 170.377 5.45748ZM28.6114 53.3477C27.6749 52.4112 27.6749 50.8934 28.6114 49.9569C29.5479 49.0205 31.0657 49.0205 32.0022 49.9569C34.1012 52.056 35.1346 54.8009 35.1346 57.5457C35.1346 60.2906 34.1012 63.0355 31.9699 65.1668C31.0657 66.071 29.5479 66.071 28.6114 65.1346C27.6749 64.1981 27.6749 62.7126 28.6114 61.7761C29.774 60.6136 30.3552 59.0958 30.3552 57.5457C30.3552 56.028 29.774 54.5102 28.6114 53.3477ZM35.1023 46.8568C34.1658 45.9203 34.1658 44.4026 35.1023 43.4661C36.0387 42.5296 37.5565 42.5296 38.493 43.4661C42.4004 47.3735 44.338 52.4758 44.338 57.5457C44.338 62.648 42.4004 67.7503 38.493 71.6577C37.5565 72.5942 36.0387 72.5942 35.1023 71.6577C34.1658 70.7212 34.1658 69.2034 35.1023 68.267C38.0732 65.3283 39.5587 61.4532 39.5587 57.5457C39.5587 53.6706 38.0732 49.7955 35.1023 46.8568ZM41.6254 40.366C40.6889 39.4295 40.6889 37.9117 41.6254 36.9752C42.5619 36.0387 44.0474 36.0387 44.9839 36.9752C50.6997 42.6588 53.5414 50.1184 53.5414 57.5457C53.5414 65.0054 50.6997 72.465 44.9839 78.1485C44.0474 79.085 42.5619 79.085 41.6254 78.1485C40.6889 77.2121 40.6889 75.6943 41.6254 74.7578C46.3724 70.0108 48.7298 63.7782 48.7298 57.5457C48.7298 51.3455 46.3724 45.113 41.6254 40.366ZM48.1163 33.8428C47.1798 32.9063 47.1798 31.3886 48.1163 30.4521C49.0527 29.5479 50.5705 29.5479 51.507 30.4521C58.9666 37.944 62.7126 47.761 62.7126 57.5457C62.7126 67.3627 58.9666 77.1798 51.507 84.6394C50.5705 85.5759 49.0527 85.5759 48.1163 84.6717C47.1798 83.7352 47.1798 82.2174 48.1163 81.2809C54.6717 74.7255 57.9333 66.1356 57.9333 57.5457C57.9333 48.9882 54.6717 40.3983 48.1163 33.8428ZM92.4542 74.0797C92.5188 74.0474 92.5834 74.0474 92.648 74.0474C92.7449 74.0474 92.8095 74.0474 92.8741 74.0797H109.247C109.053 73.4338 108.924 72.7879 108.859 72.2067C108.73 70.6566 109.117 69.2357 109.957 68.0732C110.764 66.9752 111.927 66.1356 113.348 65.6189C115.737 64.747 118.967 64.7793 122.519 66.0065C123.681 66.4263 124.812 66.9429 125.877 67.5242V52.8633H72.4004V70.8504C72.4004 71.7223 72.7557 72.5296 73.3369 73.1109C73.9182 73.6921 74.7255 74.0797 75.6297 74.0797H92.4542ZM95.07 78.859V102.433C95.07 105.92 93.6491 109.085 91.324 111.378C89.0312 113.703 85.8665 115.124 82.3789 115.124H12.6911C9.20344 115.124 6.03875 113.703 3.71367 111.378L3.5845 111.249C1.38859 108.956 0 105.823 0 102.433V12.6911C0 9.20344 1.42088 6.03875 3.71367 3.71367C6.03875 1.42088 9.20344 0 12.6911 0H82.3789C85.8665 0 89.0312 1.42088 91.324 3.71367C93.6491 6.03875 95.07 9.20344 95.07 12.6911V36.4908H122.648C124.844 36.4908 126.846 37.395 128.299 38.8482C129.752 40.3014 130.657 42.3036 130.657 44.4995V53.7352L130.818 53.6706C135.242 51.1518 140.603 48.1163 144.736 49.085C146.416 49.5048 148.515 50.6674 150.517 52.1851C152.422 53.6383 154.263 55.4467 155.587 57.2551L171.668 79.408C172.443 80.4413 173.606 81.2164 174.93 81.7653C176.609 82.4435 178.547 82.7664 180.323 82.7664C181.647 82.7664 182.713 83.8321 182.713 85.1561V112.734C182.713 114.026 181.647 115.124 180.323 115.124H152.777C147.255 115.124 143.477 110.893 139.957 106.954C139.182 106.082 138.439 105.242 137.632 104.435L136.405 103.175C135.791 103.466 135.145 103.692 134.499 103.789C133.014 103.983 131.399 103.692 129.978 102.756L129.559 102.433L128.687 101.755C128.267 102.368 127.815 102.885 127.298 103.272C126.329 104.047 125.231 104.403 124.101 104.37C123.036 104.37 121.938 104.047 120.969 103.402C119.257 102.271 117.772 100.14 117.126 97.2336C116.416 93.9074 116.674 87.7395 116.803 83.8967L116.835 83.3477L112.476 78.9236L112.411 78.859H95.07ZM92.8741 41.2702C92.8095 41.3025 92.7449 41.3025 92.648 41.3025C92.5834 41.3025 92.5188 41.3025 92.4542 41.2702H75.6297C74.7255 41.2702 73.9182 41.6577 73.3369 42.239C72.7557 42.8202 72.4004 43.6276 72.4004 44.4995V48.084H125.877V44.4995C125.877 43.6276 125.522 42.8202 124.941 42.239C124.327 41.6577 123.52 41.2702 122.648 41.2702H92.8741ZM90.2583 36.4908V12.6911C90.2583 10.5274 89.3864 8.55759 87.9333 7.13671C86.5124 5.68353 84.5425 4.81163 82.3789 4.81163H12.6911C10.5274 4.81163 8.55759 5.68353 7.13671 7.13671C5.68353 8.55759 4.81163 10.5274 4.81163 12.6911V102.433C4.81163 104.532 5.65124 106.469 7.00754 107.89L7.13671 107.987C8.55759 109.44 10.5274 110.312 12.6911 110.312H82.3789C84.5425 110.312 86.5124 109.44 87.9333 107.987C89.3864 106.566 90.2583 104.596 90.2583 102.433V78.859H75.6297C73.4015 78.859 71.3994 77.9548 69.9462 76.5016C68.493 75.0484 67.5888 73.0463 67.5888 70.8504V44.4995C67.5888 42.3036 68.493 40.3014 69.9462 38.8482H69.9785C71.4317 37.395 73.4338 36.4908 75.6297 36.4908H90.2583ZM125.942 92.5511L121.453 87.9978C121.356 91.0334 121.389 94.3272 121.808 96.2002C122.164 97.8148 122.842 98.9128 123.585 99.4295C123.778 99.5587 123.972 99.6233 124.101 99.6233C124.198 99.6233 124.295 99.5909 124.36 99.5264C124.812 99.1711 125.199 98.3315 125.361 96.9429L125.942 92.5511Z" fill="#0F75BD"/>
</svg>
