<svg width="136" height="120" viewBox="0 0 136 120" fill="none" xmlns="http://www.w3.org/2000/svg">
<path d="M77.8144 7.66294C95.9052 39.0257 115.892 71.2574 132.877 103.015C134.378 105.622 135.01 107.992 135.01 110.125C135.01 111.863 134.615 113.443 133.746 114.786C132.956 116.129 131.771 117.235 130.349 118.104C128.137 119.368 125.293 120 121.975 120H12.0079C8.92693 120 6.47795 119.447 4.50296 118.341C3.00198 117.472 1.89598 116.287 1.10599 114.865C0.394997 113.522 0 111.942 0 110.283C0 107.755 0.868993 104.99 2.52798 102.067C21.3298 70.7044 38.7097 38.1567 57.5115 6.79394C59.0125 4.18697 60.8295 2.29098 62.7255 1.26399C64.2265 0.394997 65.8065 0 67.3864 0C68.9664 0 70.4674 0.473996 71.8894 1.34299H71.9684C74.1014 2.60698 76.1554 4.73996 77.8144 7.66294ZM99.8552 57.8275L72.6004 10.6649C71.4944 8.68993 70.2304 7.26794 68.8874 6.55695C68.3344 6.24095 67.7814 6.00395 67.3074 6.00395C66.7545 6.00395 66.2804 6.16195 65.7275 6.47795C64.7005 7.03094 63.6735 8.13693 62.7255 9.79592L7.74194 105.069C6.63595 107.044 6.00395 108.782 6.00395 110.283C6.00395 110.994 6.16195 111.547 6.39895 112.021C6.63595 112.416 7.03094 112.811 7.58394 113.127C8.53193 113.68 10.0329 113.996 12.0079 113.996H121.975C124.187 113.996 126.083 113.601 127.347 112.89C127.9 112.574 128.374 112.179 128.611 111.705C128.848 111.31 129.006 110.757 129.006 110.125C129.006 109.019 128.611 107.676 127.663 106.017C125.293 102.225 99.8552 57.9065 99.8552 57.8275Z" fill="#0F75BD"/>
<path d="M72.3634 20.9348L118.42 100.724C120.316 103.963 121.185 105.938 120.316 107.36C119.605 108.703 117.393 109.098 113.364 109.098H21.2508C17.4589 109.098 15.4049 108.782 14.5359 107.439C13.7459 106.096 14.5359 104.042 16.5899 100.487L62.6465 20.6978C64.5425 17.4589 65.8065 15.7999 67.3864 15.7999C68.9664 15.7999 70.3884 17.4589 72.3634 20.9348ZM70.6254 21.9618C68.9664 19.1178 68.0184 17.7749 67.3864 17.7749C66.7544 17.7749 65.8855 19.1178 64.3845 21.7248L18.3278 101.514C16.6689 104.358 15.9579 105.859 16.2739 106.412C16.5899 106.965 18.2488 107.044 21.2508 107.044H113.364C116.603 107.044 118.262 106.886 118.578 106.333C118.894 105.78 118.183 104.358 116.682 101.751L70.6254 21.9618Z" fill="#0F75BD"/>
<path d="M62.0935 47.3206C62.0935 44.4766 64.4635 42.1067 67.4654 42.1067C70.3884 42.1067 72.7584 44.4766 72.7584 47.3206V50.5596C72.7584 53.4826 70.3884 55.8525 67.4654 55.8525C64.4635 55.8525 62.0935 53.4826 62.0935 50.5596V47.3206ZM62.0935 65.3325C62.0935 62.4095 64.4635 60.0395 67.4654 60.0395C70.3884 60.0395 72.7584 62.4095 72.7584 65.3325V93.9302C72.7584 96.8532 70.3884 99.2232 67.4654 99.2232C64.4635 99.2232 62.0935 96.8532 62.0935 93.9302V65.3325Z" fill="#0F75BD"/>
</svg>
