<svg width="40" height="40" viewBox="0 0 40 40" fill="none" xmlns="http://www.w3.org/2000/svg">
<path fill-rule="evenodd" clip-rule="evenodd" d="M20 0C30.9524 0 40 8.88889 40 20C40 30.9524 30.9524 40 20 40C8.88889 40 0 30.9524 0 20C0 8.88889 8.88889 0 20 0Z" fill="#B0CEEC"/>
<path fill-rule="evenodd" clip-rule="evenodd" d="M14.6732 9H25.3268C28.6591 9 31 11.3653 31 14.7323V25.2556C31 28.7433 28.8143 31 25.3268 31H14.6732C11.1857 31 9 28.8036 9 25.2556V14.7323C9 11.4498 11.4365 9 14.6732 9ZM20 14.7564C21.4332 14.7564 22.7231 15.3478 23.6667 16.2891C24.5983 17.2425 25.1835 18.5458 25.1835 19.994C25.1835 21.4421 24.5983 22.7575 23.6667 23.6988C22.7231 24.6522 21.4332 25.2436 20 25.2436C18.5668 25.2436 17.2649 24.6522 16.3333 23.6988C15.3898 22.7575 14.8165 21.4421 14.8165 19.994C14.8165 18.5458 15.3898 17.2425 16.3333 16.2891C17.2649 15.3478 18.5668 14.7564 20 14.7564ZM25.6374 12.6928C26.4017 12.6928 27.0109 13.3083 27.0109 14.0806C27.0109 14.8409 26.4017 15.4685 25.6374 15.4685C24.8849 15.4685 24.2638 14.8409 24.2638 14.0806C24.2638 13.3083 24.8849 12.6928 25.6374 12.6928Z" fill="#0F75BD"/>
</svg>
