<svg width="40" height="40" viewBox="0 0 40 40" fill="none" xmlns="http://www.w3.org/2000/svg">
<path fill-rule="evenodd" clip-rule="evenodd" d="M20 0C30.9524 0 40 8.88889 40 20C40 30.9524 30.9524 40 20 40C8.88889 40 0 30.9524 0 20C0 8.88889 8.88889 0 20 0Z" fill="#B0CEEC"/>
<path fill-rule="evenodd" clip-rule="evenodd" d="M16.178 31C13.1643 31 10.3614 30.1224 8 28.6163C8.41671 28.6656 8.84087 28.6927 9.27247 28.6927C11.7728 28.6927 14.0721 27.8447 15.8952 26.4224C13.5636 26.378 11.5942 24.8472 10.9145 22.7395C11.2395 22.8036 11.5743 22.8357 11.9166 22.8357C12.4028 22.8357 12.8766 22.7716 13.323 22.6508C10.8823 22.1627 9.04427 20.0205 9.04427 17.4495C9.04427 17.4297 9.04427 17.4076 9.04427 17.3854C9.76359 17.7823 10.5871 18.0214 11.4627 18.0485C10.029 17.0945 9.08643 15.4749 9.08643 13.636C9.08643 12.6647 9.35184 11.7527 9.81072 10.9688C12.4425 14.1783 16.3715 16.2884 20.804 16.5103C20.7123 16.1208 20.6676 15.7165 20.6676 15.2999C20.6676 12.3739 23.0563 10 26.0006 10C27.536 10 28.9201 10.6434 29.8949 11.6738C31.1103 11.4371 32.2513 10.9959 33.2807 10.387C32.8838 11.6245 32.0355 12.6647 30.9367 13.3205C32.0156 13.1923 33.045 12.9063 34 12.4848C33.2832 13.5497 32.3803 14.4815 31.341 15.2284C31.3484 15.4552 31.3534 15.6869 31.3534 15.9162C31.3534 22.9219 25.9882 31 16.178 31Z" fill="#0F75BD"/>
</svg>
