<svg width="40" height="40" viewBox="0 0 40 40" fill="none" xmlns="http://www.w3.org/2000/svg">
<path fill-rule="evenodd" clip-rule="evenodd" d="M20 0C30.9524 0 40 8.88889 40 20C40 30.9524 30.9524 40 20 40C8.88889 40 0 30.9524 0 20C0 8.88889 8.88889 0 20 0Z" fill="#B0CEEC"/>
<path fill-rule="evenodd" clip-rule="evenodd" d="M11.8943 11H27.8522C32.7729 11 32.9995 15.0493 32.9995 20.0008C32.9995 23.9828 33.1518 29 27.8522 29H11.8943C6.60237 29 7.00712 23.8944 7.00712 20.0008C7.00712 15.0493 6.97535 11 11.8943 11ZM24.1734 19.9983L17.438 24.0333V15.965L24.1734 19.9983Z" fill="#0F75BD"/>
</svg>
