<svg width="40" height="40" viewBox="0 0 40 40" fill="none" xmlns="http://www.w3.org/2000/svg">
<path fill-rule="evenodd" clip-rule="evenodd" d="M20 0C30.9524 0 40 8.88889 40 20C40 30.9524 30.9524 40 20 40C8.88889 40 0 30.9524 0 20C0 8.88889 8.88889 0 20 0Z" fill="#B0CEEC"/>
<path fill-rule="evenodd" clip-rule="evenodd" d="M14.9563 13.074C15.0383 10.5782 15.5519 7.60803 17.6503 6.06085C20.1257 4.23698 23.3497 5.14609 26 5.9705L25.2186 10.7476L24.6721 10.5951C21.3169 9.65777 20.6885 10.341 20.7213 14.1582L20.7268 15.0729H25.4153L25.0601 19.7597H20.7213V35H14.9344V19.7597H12V15.0729H14.9344L14.9563 13.074Z" fill="#0F75BD"/>
</svg>
