<svg width="40" height="40" viewBox="0 0 40 40" fill="none" xmlns="http://www.w3.org/2000/svg">
<path fill-rule="evenodd" clip-rule="evenodd" d="M20 0C30.9524 0 40 8.88889 40 20C40 30.9524 30.9524 40 20 40C8.88889 40 0 30.9524 0 20C0 8.88889 8.88889 0 20 0Z" fill="#B0CEEC"/>
<path fill-rule="evenodd" clip-rule="evenodd" d="M20.3761 28.9338C21.0048 28.9253 21.3787 28.5172 21.3702 27.8625C21.3702 27.8625 21.3362 25.6177 22.3813 25.2861C23.4095 24.963 24.7265 27.4628 26.12 28.4151C27.1821 29.1464 27.9809 28.9848 27.9809 28.9848L31.7195 28.9338C31.7195 28.9338 33.6823 28.8148 32.7477 27.2758C32.6797 27.1482 32.2124 26.1364 29.9692 24.0532C27.624 21.8765 27.9384 22.2336 30.7679 18.4669C31.83 17.0469 32.4928 15.967 32.7987 15.2103C33.283 14.0114 32.7902 13.7393 31.4901 13.7478L27.2756 13.7733C26.8423 13.7733 26.5364 13.9349 26.3664 14.326C26.3664 14.326 25.6952 16.1031 24.803 17.6081C22.9336 20.7966 22.1859 20.9582 21.8715 20.7626C21.1663 20.3035 21.3447 18.909 21.3447 17.9227C21.3447 14.8362 21.812 13.5522 20.427 13.2206C19.2375 12.923 15.9916 12.8805 14.972 13.3822C14.4961 13.6118 14.1223 14.1389 14.3517 14.1644C14.6236 14.207 15.2524 14.3345 15.5923 14.7936C16.0256 15.3803 16.0086 16.6983 16.0086 16.6983C16.0086 16.6983 16.255 20.329 15.4308 20.7796C14.8615 21.0942 14.0798 20.4565 12.4144 17.5741C11.5562 16.0861 10.9104 14.4535 10.9104 14.4535C10.732 14.0199 10.3666 13.7223 9.91627 13.7223L5.91419 13.7478C5.25142 13.7563 4.80958 14.0199 5.08148 14.7426C5.08148 14.7426 8.20837 22.072 11.7516 25.7708C14.5726 28.7127 16.9093 28.9933 20.3761 28.9338Z" fill="#0F75BD"/>
</svg>
